<?xml version="1.0" standalone="no"?>
<!DOCTYPE svg PUBLIC "-//W3C//DTD SVG 1.1//EN" "http://www.w3.org/Graphics/SVG/1.1/DTD/svg11.dtd" >
<svg xmlns="http://www.w3.org/2000/svg">
<metadata>
Created by FontForge 20120731 at Sat Dec  3 21:10:07 2016
 By admin
</metadata>
<defs>
<font id="ico" horiz-adv-x="1024" >
  <font-face 
    font-family="ico"
    font-weight="500"
    font-stretch="normal"
    units-per-em="1024"
    panose-1="2 0 6 3 0 0 0 0 0 0"
    ascent="896"
    descent="-128"
    x-height="792"
    bbox="-17 -224 1463.37 896.6"
    underline-thickness="0"
    underline-position="0"
    unicode-range="U+0078-E7BC"
  />
<missing-glyph 
 />
    <glyph glyph-name=".notdef" 
 />
    <glyph glyph-name=".notdef" 
 />
    <glyph glyph-name=".null" horiz-adv-x="0" 
 />
    <glyph glyph-name="nonmarkingreturn" horiz-adv-x="341" 
 />
    <glyph glyph-name="x" unicode="x" horiz-adv-x="1001" 
d="M281 543q-27 -1 -53 -1h-83q-18 0 -36.5 -6t-32.5 -18.5t-23 -32t-9 -45.5v-76h912v41q0 16 -0.5 30t-0.5 18q0 13 -5 29t-17 29.5t-31.5 22.5t-49.5 9h-133v-97h-438v97zM955 310v-52q0 -23 0.5 -52t0.5 -58t-10.5 -47.5t-26 -30t-33 -16t-31.5 -4.5q-14 -1 -29.5 -0.5
t-29.5 0.5h-32l-45 128h-439l-44 -128h-29h-34q-20 0 -45 1q-25 0 -41 9.5t-25.5 23t-13.5 29.5t-4 30v167h911zM163 247q-12 0 -21 -8.5t-9 -21.5t9 -21.5t21 -8.5q13 0 22 8.5t9 21.5t-9 21.5t-22 8.5zM316 123q-8 -26 -14 -48q-5 -19 -10.5 -37t-7.5 -25t-3 -15t1 -14.5
t9.5 -10.5t21.5 -4h37h67h81h80h64h36q23 0 34 12t2 38q-5 13 -9.5 30.5t-9.5 34.5q-5 19 -11 39h-368zM336 498v228q0 11 2.5 23t10 21.5t20.5 15.5t34 6h188q31 0 51.5 -14.5t20.5 -52.5v-227h-327z" />
    <glyph glyph-name="baobei" unicode="&#xe68a;" horiz-adv-x="1082" 
d="M31 352q0 25 17 42.5t42 17.5h421v-60v-390q0 -26 -17.5 -43t-43.5 -17h-360q-25 0 -42 17t-17 43v390zM992 412q24 0 42 -17.5t18 -42.5v-390q0 -26 -18 -43t-42 -17h-361q-24 0 -42 17t-18 43v450h421zM1021 683q26 0 43.5 -18t17.5 -43v-89q0 -26 -17.5 -43t-43.5 -17
h-450v149q0 15 6.5 28t17.5 21q-11 -8 -24.5 -13.5t-30.5 -5.5q-29 0 -53 19q24 -17 24 -49v-149h-451q-24 0 -42 17t-18 43v89q0 25 18 43t42 18h390q22 0 36 -12l-12 12h-287q-28 0 -47 20.5t-19 48.5v71q0 28 19 49t47 21q38 7 76 -1.5t74 -24.5t68 -37t59 -42
q11 21 31.5 32.5t44.5 11.5q27 0 47.5 -12t31.5 -33q24 19 55 38t66 35t74.5 25t80.5 8q27 0 46.5 -21t19.5 -49v-71q0 -28 -19.5 -48.5t-46.5 -20.5h-286l-6 -6q-3 -3 -8 -6q16 12 36 12h390zM661 713h152q11 0 20 8.5t9 21.5v30q0 12 -9 20.5t-20 8.5l-152 -74v-15z
M421 728l-152 74q-12 0 -20 -8.5t-8 -20.5v-30q0 -13 8 -21.5t20 -8.5h152v15z" />
    <glyph glyph-name="chongwu" unicode="&#xe68b;" 
d="M1024 683q0 -71 -46 -122q46 -89 46 -193q0 -97 -40 -182t-109.5 -148t-163 -99t-199.5 -36t-199.5 36t-162.5 99t-109.5 148t-40.5 182q0 104 46 193q-46 51 -46 122q0 38 14 71t37.5 58.5t55.5 39.5t68 14q43 0 79 -18.5t59 -49.5q46 17 96.5 26.5t102.5 9.5
t102.5 -9.5t96.5 -26.5q24 31 59.5 49.5t78.5 18.5q37 0 68.5 -14t55 -39.5t37.5 -58.5t14 -71zM206 268q10 0 18.5 10.5t15.5 29t10.5 42.5t3.5 51.5t-3.5 51.5t-10.5 42t-15.5 28.5t-18.5 10.5q-9 0 -18 -10.5t-15.5 -28.5t-10.5 -42t-4 -51.5t4 -51.5t10.5 -42.5
t15.5 -29t18 -10.5zM512 -32q53 0 99.5 13.5t81.5 36t55 52.5t20 65q0 34 -20 64t-55 52.5t-81.5 36t-99.5 13.5t-99.5 -13.5t-81.5 -36t-55 -52.5t-20 -64q0 -35 20 -65t55 -52.5t81.5 -36t99.5 -13.5zM818 268q10 0 19 10.5t15.5 29t10 42.5t3.5 51.5t-3.5 51.5t-10 42
t-15.5 28.5t-19 10.5q-9 0 -17.5 -10.5t-15.5 -28.5t-11 -42t-4 -51.5t4 -51.5t11 -42.5t15.5 -29t17.5 -10.5zM512 236q40 0 68 -10t28 -24.5t-28 -24t-68 -9.5t-68 9.5t-28 24t28 24.5t68 10z" />
    <glyph glyph-name="muying" unicode="&#xe68c;" 
d="M820 402q18 -17 18 -43t-18 -45l-423 -424q-19 -17 -45 -17t-44 17l-290 290q-18 19 -18 44.5t18 44.5l424 423q19 19 44.5 19t43.5 -19zM508 537q9 9 9 22t-9 22t-22 9t-22 -9l-311 -312q-10 -9 -10 -22.5t9.5 -22.5t22 -9t22.5 9zM920 481q14 -14 14 -33.5t-14 -33.5
q-14 -15 -33.5 -15t-33.5 15l-311 311q-15 14 -15 33.5t15 34.5q13 14 32.5 14t33.5 -14zM1010 814q-15 -13 -34 -13t-33 13q20 -20 29 -46t7 -54.5t-14.5 -56.5t-33.5 -53v-1q10 -9 10 -22t-10 -22q-9 -9 -22.5 -9t-22.5 9l-200 200q-8 9 -8 22.5t9 22.5q8 10 21.5 10
t22.5 -10v-1q25 22 53.5 34.5t57 14t55 -7t46.5 -28.5q-14 14 -14 33t14 33t33 14t34 -14q13 -15 13.5 -34.5t-13.5 -33.5z" />
    <glyph glyph-name="jiaju" unicode="&#xe68d;" 
d="M1024 415q0 -30 -10 -51.5t-25 -41.5t-30.5 -41t-24.5 -50q-3 -8 -5.5 -26t-5 -42.5t-5.5 -53.5t-5 -58q-5 -67 -10 -148q0 -9 -6 -16q-5 -6 -17.5 -10.5t-35.5 -4.5q-25 0 -42 4.5t-28 10.5q-12 7 -21 16v29h-482v-29q-9 -9 -21 -16q-11 -6 -28 -10.5t-41 -4.5
t-36.5 4.5t-17.5 10.5q-6 7 -6 16q-5 81 -9 148q-2 29 -5 58t-5.5 53.5t-5 42.5t-5.5 26q-10 29 -25.5 50t-30.5 41t-25 41.5t-10 51.5q0 58 42 89.5t113 31.5q24 0 41.5 -9t30.5 -23t21 -31.5t13 -37.5q-5 33 -16 62.5t-33 48.5q-11 9 -26 17t-32 15.5t-34 13.5t-30 9v9
q0 11 0.5 34t10.5 51t33.5 58.5t70.5 56t121 41t186 15.5q111 0 185 -15.5t121 -41t71 -56t34 -58.5t10.5 -51t0.5 -34v-9q-13 -3 -30 -8.5t-34 -12.5t-32.5 -15.5t-25.5 -18.5q-17 -18 -29 -45q14 14 34.5 24.5t51.5 10.5q72 0 113.5 -31.5t41.5 -89.5zM753 294
q13 0 21.5 8.5t8.5 21.5t-8.5 21.5t-21.5 8.5q0 6 -19 16.5t-52 20t-76.5 17t-93.5 7.5t-93.5 -7.5t-76.5 -17t-52 -20t-19 -16.5q-12 0 -20.5 -8.5t-8.5 -21.5t8.5 -21.5t20.5 -8.5q34 16 73 30q33 11 75 20t87 10h2q46 -1 89.5 -10t78.5 -20q41 -14 77 -30z" />
    <glyph glyph-name="shishang" unicode="&#xe68e;" 
d="M922 687q17 -24 9 -72q-3 -20 -13 -46.5t-28.5 -61.5t-47.5 -78.5t-72 -96.5q-7 -23 -11 -42q-3 -18 -2.5 -35.5t11.5 -30.5q7 -8 20 -18.5t27 -28t28 -42.5t24 -61.5t13 -86t-4 -115.5h-717q-8 66 -4.5 115.5t13.5 85.5t24.5 61t29 42t26.5 28t18 20q8 13 9 30t-1 35
q-3 19 -8 41q-44 53 -74.5 96.5t-50.5 79t-31 62.5t-15 47q-11 49 5 74q58 31 105 42.5t82 13.5q41 3 73 -5q21 67 47.5 99t51.5 45q28 14 59 11q29 3 56 -11q24 -13 49.5 -45.5t46.5 -99.5q30 7 70 5q34 -2 80 -13.5t102 -43.5z" />
    <glyph glyph-name="nanzhuang" unicode="&#xe68f;" 
d="M899 797q9 -14 18 -48.5t16.5 -81.5t13.5 -100.5t11.5 -103t9.5 -90t6 -61.5q4 -30 7 -70t5.5 -80t4 -75.5t2.5 -56.5q-13 -17 -30 -26t-34.5 -11t-34 2.5t-30.5 16.5q-1 11 -3.5 34t-6 53.5t-8 66.5t-8.5 72q-12 84 -24 184q-7 -38 -11 -75q-4 -32 -6.5 -66.5
t-0.5 -62.5q1 -18 3 -29t4.5 -20t5 -21.5t5 -34.5t5 -56.5t4.5 -90.5q-11 -24 -50.5 -42t-88.5 -30t-97 -17t-75 -5q-18 0 -46 2.5t-60.5 7t-66 12.5t-62 18t-49.5 24t-28 30q2 56 5 90.5t5.5 56.5t5 34.5t5 21.5t4 20t3.5 29q2 28 -0.5 62.5t-6.5 66.5q-4 37 -11 75
q-13 -100 -25 -184q-5 -36 -9 -72t-8 -66.5t-6.5 -53.5t-2.5 -34q-14 -12 -30.5 -16.5t-34 -2.5t-34 11t-29.5 26q0 21 2 56.5t4 75.5t5.5 80t6.5 70q2 21 6 61.5t10 90t12 103t13.5 100.5t16.5 81.5t18 48.5q20 12 56 25.5t73.5 26.5t71 25t50.5 22q10 -13 16.5 -61.5
t13.5 -116t15.5 -146t22.5 -153.5l39 335l-29 25l43 55l15 -3l15 3l43 -55l-29 -25l39 -335q14 75 22.5 153.5t15.5 146t13.5 116t16.5 61.5q17 -10 50.5 -22t71 -25t73.5 -26.5t56 -25.5z" />
    <glyph glyph-name="xiezi" unicode="&#xe690;" 
d="M1022 60q-1 -10 0 -27.5t-3 -26.5q-25 -11 -52 -18t-55.5 -11.5t-57 -6.5t-54.5 -3q-65 -4 -129.5 -4t-128.5 2q-20 1 -32 3t-24 18q-9 11 -16.5 21.5t-14.5 22.5q-18 27 -32 57l-29 59q-11 21 -26 49t-32 58t-33.5 57t-31.5 44q-6 7 -13 7.5t-15 -2.5l-17 -4
q-8 -3 -16 -1q-13 -26 -19.5 -53.5t-10 -55t-6.5 -56t-10 -57.5q-7 -32 -9.5 -63t-2.5 -63q-1 -2 -0.5 -5.5t0.5 -5.5q-7 -2 -14 -2h-12q-6 0 -18.5 -1.5t-17.5 1.5q-1 8 0 14.5t0 15.5q-5 59 -9.5 120.5t-13 122.5t-21.5 119.5t-36 114.5q-12 37 -8.5 74.5t18 73.5t36 68.5
t44.5 58.5q100 -93 195.5 -190t190.5 -195q22 -21 42.5 -43.5t43 -43t48 -37t55.5 -26.5q27 -10 57 -10q8 -1 16.5 -1t16.5 2q4 7 8.5 12.5t10.5 10.5q12 10 26 16t29 6t29.5 -5.5t24.5 -17.5q15 -21 15 -43q0 -7 1 -10t2.5 -6t5 -5.5t7.5 -8.5q6 -9 6 -20q10 -4 20 -13
q22 -17 35 -45q2 -6 4 -12.5t3 -12.5q12 0 19 -4l6 -6q2 -4 5 -7z" />
    <glyph glyph-name="baobao" unicode="&#xe691;" 
d="M1024 -8q0 -12 -11.5 -32.5t-34.5 -39.5t-56.5 -33.5t-77.5 -14.5h-663q-45 0 -78.5 14.5t-56.5 33.5t-34.5 39.5t-11.5 32.5l90 482q0 26 18 43.5t43 17.5q7 -3 16 -6q8 -2 19 -5l25 -7v80q0 61 23.5 116t64.5 95.5t96 64t117 23.5t117 -23.5t96 -64t64.5 -95.5
t23.5 -116v-80l25 7q11 3 19 5q9 3 16 6q26 0 43.5 -17.5t17.5 -43.5zM241 324q25 0 42.5 17t17.5 43q0 17 -8 30.5t-22 21.5v-52h-60v52q-30 -16 -30 -52q0 -26 17.5 -43t42.5 -17zM271 503q51 -11 113 -20t128 -9t128 9t114 20v85q0 51 -19 96t-52 79t-77 53.5t-94 19.5
t-93.5 -19.5t-76.5 -53.5t-52 -79t-19 -96v-85zM783 324q26 0 43.5 17t17.5 43q0 17 -8.5 30.5t-22.5 21.5v-52h-59v52q-15 -8 -23 -21.5t-8 -30.5q0 -26 18 -43t42 -17z" />
    <glyph glyph-name="nvzhuang" unicode="&#xe692;" 
d="M663 444q10 -5 30 -16t46 -31.5t57.5 -53t65 -81t67.5 -115t64 -154.5q-15 -9 -31 -21.5t-31.5 -22t-31.5 -15.5t-33 -3q-44 10 -78 9t-63 -8t-53.5 -17t-47.5 -20t-46 -16.5t-50 -6.5q-57 1 -110 17t-101.5 32.5t-90 25t-74.5 -4.5q-21 -9 -42.5 -1.5t-38.5 18.5
q-21 13 -40 34q38 117 86 199.5t92.5 136.5t79 81.5t43.5 33.5t10 25.5t-1 40.5q-3 25 -9 54l-151 302l180 30q28 -52 54 -79t50 -37t45.5 -5.5t40.5 18.5q43 30 81 103l181 -30q-20 -48 -45 -99q-20 -44 -47.5 -97.5t-57.5 -105.5q-13 -35 -14.5 -57.5t1.5 -36.5
q4 -16 13 -26z" />
    <glyph glyph-name="zanting" unicode="&#xe64e;" 
d="M741 649q25 0 43 -22t18 -53v-548q0 -32 -18 -54t-43 -22h-31q-26 0 -44 22t-18 54v548q0 31 18 53t44 22h31zM314 649q26 0 44 -22t18 -53v-548q0 -32 -18 -54t-44 -22h-31q-25 0 -43 22t-18 54v548q0 31 18 53t43 22h31z" />
    <glyph glyph-name="tushu" unicode="&#xe6e2;" 
d="M869 -148h-624q-25 0 -48.5 24.5t-34.5 48.5l-11 25v65l30 -2q19 0 32.5 6.5t20 16.5t10 20t4.5 17v6q0 19 -6.5 32.5t-16 19.5t-19.5 10t-16 5h-7h-32v128h31q17 0 30 6.5t20 15.5t11 18.5t5 15.5l1 7q0 19 -7 33t-16.5 20.5t-19.5 10.5t-17 4l-7 1h-30l-1 127l31 2
q19 0 32.5 6.5t20 16.5t10 19.5t3.5 15.5v7q0 26 -16 42.5t-32 19.5l-16 3h-33v63q0 13 9.5 22.5t23.5 9.5h585q13 0 22.5 -9.5t9.5 -22.5l65 -2q12 0 20.5 -8.5t10.5 -16.5l2 -8v-810q0 -11 -7.5 -18.5t-15.5 -9.5l-7 -3v0zM736 533h-423v-259h423v259v0zM835 687l-34 11
v-715q0 -13 -9.5 -22.5t-22.5 -9.5h-555q0 -10 8.5 -18.5t16.5 -11.5l8 -4h554q16 0 24.5 7.5t8.5 15.5l1 8v739v0zM394 468h261q6 0 11 -4.5t5 -11.5t-5 -11.5t-11 -4.5h-261q-7 0 -11.5 4.5t-4.5 11.5t4.5 11.5t11.5 4.5v0zM394 371h261q6 0 11 -4.5t5 -11.5t-5 -11.5
t-11 -4.5h-261q-7 0 -11.5 4.5t-4.5 11.5t4.5 11.5t11.5 4.5v0zM215 598q0 -13 -9.5 -22.5t-23.5 -9.5h-65q-13 0 -23 9.5t-10 22.5t10 22.5t23 9.5h65q14 0 23.5 -9.5t9.5 -22.5v0zM86 339q0 13 9.5 22.5t22.5 9.5h64q14 0 23.5 -9.5t9.5 -23t-9.5 -23t-23.5 -9.5h-64
q-13 0 -22.5 9.5t-9.5 23.5v0zM117 112h65q14 0 23.5 -9.5t9.5 -23t-9.5 -23t-23.5 -9.5h-65q-13 0 -23 9.5t-10 23t10 23t23 9.5v0z" />
    <glyph glyph-name="play" unicode="&#xe610;" 
d="M512 885q-102 0 -194.5 -40t-159.5 -107t-107 -159.5t-40 -194.5t40 -194.5t107 -159.5t159.5 -107t194.5 -40t194.5 40t159.5 107t107 159.5t40 194.5t-40 194.5t-107 159.5t-159.5 107t-194.5 40zM512 -71q-93 0 -177 36t-145 97t-97 145t-36 177t36 177t97 145t145 97
t177 36t177 -36t145 -97t97 -145t36 -177t-36 -177t-97 -145t-145 -97t-177 -36zM375 156l388 228l-388 228v-456z" />
    <glyph glyph-name="users" unicode="&#xe6d3;" 
d="M640 199q-6 0 -15.5 -0.5t-39 -5t-57.5 -12.5t-66 -25t-70 -40.5t-63 -62t-52 -85.5q7 -2 19.5 -6.5t51.5 -16t79.5 -20t99 -16t113.5 -7.5q88 0 178.5 16.5t137.5 33.5l47 16q-70 163 -257 215q-60 16 -106 16zM640 232q75 0 120 70.5t45 193.5q0 34 -9 61t-23.5 43.5
t-32.5 29t-35.5 18.5t-32 9t-23.5 3l-9 1q-3 0 -9 -0.5t-23.5 -3.5t-33 -9t-34.5 -18.5t-32.5 -29t-23 -43.5t-9.5 -61q0 -123 45 -193.5t120 -70.5zM320 345q48 0 83 37q-13 52 -13 114q0 83 54 126q-9 21 -25 36.5t-32.5 22.5t-32 11.5t-24.5 4.5l-10 1q-5 0 -14.5 -1
t-33 -8.5t-41 -20t-32.5 -40.5t-15 -66q0 -101 37 -159t99 -58v0zM448 238l-5 54q-29 11 -60 17.5t-47 7.5h-16h-13t-32 -4t-47 -10.5t-54.5 -20.5t-57.5 -33.5t-52 -51t-43 -70.5q12 -4 33 -11.5t84.5 -21.5t123.5 -19q116 121 186 163v0z" />
    <glyph glyph-name="weixin_y" unicode="&#xe6d0;" 
d="M580 384q-9 0 -16 -7t-7 -17q0 -8 7 -15t16 -7q13 0 21.5 6.5t8.5 15.5q0 10 -8.5 17t-21.5 7v0zM503 497q14 0 22 8t8 21t-8 21t-22 8t-24 -8t-10 -21t10 -21t24 -8v0zM512 895q-104 0 -198.5 -40.5t-163 -109t-109 -163t-40.5 -198.5t40.5 -199t109 -163.5t163 -109
t198.5 -40.5t199 40.5t163.5 109t109 163.5t40.5 199t-40.5 198.5t-109 163t-163.5 109t-199 40.5v0zM416 254q-36 0 -83 13l-84 -42l24 72q-94 66 -94 158q0 84 69 142t168 58q87 0 154.5 -46.5t82.5 -118.5q-12 2 -22 2q-85 0 -143 -55t-58 -132q0 -23 6 -50q-6 -1 -20 -1
v0zM763 172l17 -60l-63 36q-5 -1 -22 -5t-28 -5.5t-22 -1.5q-84 0 -142 50t-58 121.5t58 121.5t142 50q80 0 140.5 -50.5t60.5 -121.5q0 -74 -83 -135v0zM338 555q-14 0 -25 -8t-11 -21t11 -21t25 -8q13 0 21.5 8t8.5 21t-8.5 21t-21.5 8v0zM711 384q-10 0 -17 -7t-7 -17
q0 -8 7.5 -15t16.5 -7q12 0 20.5 6.5t8.5 15.5q0 10 -8.5 17t-20.5 7v0zM711 384z" />
    <glyph glyph-name="yundong" unicode="&#xe70d;" 
d="M1024 241q-6 39 -18 58q12 53 -16 144q2 11 3 23.5t-2.5 33.5t-12 40.5t-27.5 43.5t-46 44q-12 10 -28 10q-40 0 -77 -69q-6 -12 -15 -12q-22 0 -64 35q-4 3 -5 4t-1 2q-47 56 -96 56q-38 0 -70 -30q-62 -60 -153.5 -125.5t-144.5 -75.5q-21 -4 -57 -12q-35 -8 -62 -13
q-62 -13 -95 -29t-40 -47q-1 -8 -2 -17q-1 -23 8.5 -45t33 -46t73.5 -45t121 -35q59 -14 156 -14q87 0 181 14q83 9 177 9q49 0 88 -4h2h3q25 2 52 5.5t66 17t55 33.5q17 21 13 46zM145 338q28 6 62 14q35 8 55 11q60 12 148.5 72.5t160.5 125.5v-0.5v-0.5q0 -19 13.5 -32.5
t33 -13.5t33 13.5t13.5 32.5v4q1 -2 4 -5q7 -8 11 -11q1 -1 3 -2q59 -50 103 -50q45 0 69 44q12 23 22 34q20 -17 33 -35.5t17.5 -32t5 -27.5t0 -19t-1.5 -8l-4 -10l3 -9q15 -46 19 -81q-31 -4 -80 -7q-38 -1 -114 -22q-123 -34 -244 -52q-48 34 -102 15q-10 -4 -30 -13
q-23 -9 -36.5 -14t-41.5 -9t-61 -2q-28 0 -67 6t-63 19q-31 17 -49 36q-1 0 -2 1q12 13 87 28zM836 200q-41 3 -91 3q-101 0 -185 -9q-90 -14 -173 -14q-58 0 -106 7q57 3 121 31q18 7 27 11q24 8 47 -8l1 -2l4 -3l8 -9l17 2q132 19 264 55q70 19 101 21q32 1 57 4l-42 -46
l73 14q3 -9 5 -24q-7 -10 -46 -20t-82 -13z" />
    <glyph glyph-name="lock-0-2" unicode="&#xe694;" 
d="M764 468v112q0 104 -74 177.5t-178 73.5t-178 -73.5t-74 -177.5v-112q-34 0 -58.5 -24.5t-24.5 -59.5v-196q0 -104 73.5 -177.5t177.5 -73.5h168q104 0 178 73.5t74 177.5v196q0 35 -25 59.5t-59 24.5zM316 580q0 81 57.5 138t138.5 57t138.5 -57t57.5 -138v-112h-56v112
q0 57 -41 98t-99 41t-99 -41t-41 -98v-112h-56v112zM624 580v-112h-224v112q0 46 33 78.5t79 32.5t79 -32.5t33 -78.5zM791 188q0 -81 -57 -138t-138 -57h-168q-81 0 -138.5 57t-57.5 138v196q0 12 8.5 20t19.5 8h504q11 0 19.5 -8t8.5 -20v-196h-1zM512 300
q-23 0 -39.5 -16.5t-16.5 -39.5t19 -75q13 -37 37 -37q15 0 22.5 9.5t14.5 27.5q19 51 19 75q0 23 -16.5 39.5t-39.5 16.5z" />
    <glyph glyph-name="locationfill" unicode="&#xe609;" 
d="M512 832q-146 0 -249 -103t-103 -249q0 -53 34 -127.5t76.5 -136.5t98 -130.5t80 -95.5t40.5 -44q9 -10 23 -10h1q14 0 23 11l109 125q219 268 219 408q0 146 -103 249t-249 103zM512 320q-66 0 -113 47t-47 113t47 113t113 47t113 -47t47 -113t-47 -113t-113 -47z" />
    <glyph glyph-name="ph" unicode="&#xe60d;" 
d="M369 66v-1q-4 0 -8.5 -0.5t-5.5 -0.5h-3q-52 0 -89 36.5t-38 88.5q-2 53 34 91q37 39 89 40h2h2q40 0 74 -24q46 -16 92 45t19 95q-9 7 -18 17q-2 1 -3 3q-31 35 -33 80q-1 53 35 91t89 40h1.5h2.5q44 0 78.5 -28t44.5 -71q6 -18 8 -43t-1.5 -68t-28 -100.5t-68.5 -116.5
q-41 -55 -85 -93t-81.5 -54t-62.5 -21.5t-46 -5.5zM365 130q9 0 20.5 1t36.5 9t49 22.5t57.5 44.5t64.5 71q38 52 59.5 101.5t24 85.5t1 54.5t-5.5 31.5q-5 23 -22.5 37.5t-39.5 14.5q-27 -1 -45 -20t-18 -45q1 -23 17 -40v-1q6 -6 12 -10q4 -3 6 -6q10 -10 16.5 -24
t11 -36.5t-5.5 -53.5t-35 -64q-55 -74 -124 -74q-24 0 -47 9q-4 2 -8 5q-17 14 -38 14q-28 -1 -46 -20t-17 -45q0 -26 18.5 -44t44.5 -18v0q1 1 3 1q6 0 10 -1zM512 -67q-91 0 -174 35q-12 5 -17 17t0 24.5t17.5 17.5t24.5 0q71 -30 149 -30q104 0 192.5 51.5t140 140
t51.5 192.5t-51.5 192.5t-140 140t-192.5 51.5t-192.5 -51.5t-140 -140t-51.5 -192.5q0 -111 59 -204q7 -11 4 -24t-14.5 -20t-24.5 -4t-20 14q-68 109 -68 238q0 91 35.5 174t95.5 143t143 95.5t174 35.5t174 -35.5t143 -95.5t95.5 -143t35.5 -174t-35.5 -174t-95.5 -143
t-143 -95.5t-174 -35.5z" />
    <glyph glyph-name="user-o-u" unicode="&#xe6d5;" 
d="M991 389q0 98 -38 186.5t-102.5 153t-153 102.5t-186 38t-186 -38t-153 -102.5t-102.5 -153t-38 -186.5q0 -101 40 -191t111 -157v-1l12 -10q51 -46 114 -75l2 -1q1 -1 2 -1l4 -2v0q80 -35 167 -40v0h5h1q3 -1 4 -1h3h3h3h1h2h5.5h5.5h2.5h3.5h3h3t4 1h1h5v0q98 5 186 49
q56 28 103 70l12 10v1q71 66 111 156.5t40 191.5zM65 389q0 91 35.5 174t95 142.5t142.5 95t173.5 35.5t173.5 -35.5t142.5 -95t95 -142.5t35.5 -174q0 -94 -37 -178t-103 -146q-49 47 -138 72q-31 14 -38 19l-7 7q-16 16 -18 31v69q23 27 41 87q12 5 22.5 18t13.5 30
q8 36 -6 54q19 71 16 129t-27 90q-26 34 -71 34q-3 3 -7 8q-10 14 -25.5 20.5t-51.5 6.5h-6q-97 0 -145 -57q-62 -74 -35 -233q-12 -17 -6 -51q7 -34 32 -47q20 -60 45 -88q2 -63 0 -73q-2 -14 -16 -28q-12 -12 -45 -25q-92 -25 -141 -73q-66 62 -103 146t-37 178v0zM725 -3
h-0.5h-0.5l-4 -2q-3 -2 -6 -3q0 -1 -1 -1h-1q-85 -43 -181 -48v0h-1h-8h-1h-1h-8.5h-8.5h-1h-1h-8h-0.5h-0.5q-91 4 -174 44h-0.5h-0.5q-2 2 -5 3q-44 22 -82 53q43 41 127 64q41 16 57 33q21 21 26 45q2 15 0 86v6l-5 5q-23 24 -45 88l-1 11h-12q-3 1 -8 8t-6 16
q-3 15 -1 24l11 2l-3 16q-27 150 26 215q38 45 120 45h6q19 0 30 -2t14 -4t7 -7q9 -13 20 -19l4 -3l9 1q29 0 45 -22q20 -26 20.5 -80.5t-18.5 -121.5l-2 -16l12 -4q2 -9 -1 -24q-3 -13 -12 -22l-13 11l-7 -23q-19 -68 -41 -90l-5 -5v-84q4 -28 28 -52l8 -8q12 -10 49 -26
q82 -23 124 -63q-32 -26 -68 -46v0z" />
    <glyph glyph-name="19" unicode="&#xe6e0;" 
d="M509 557q106 0 181 -75t75 -181t-75 -181t-181 -75t-181 75t-75 181t75 181t181 75z" />
    <glyph glyph-name="weibo" unicode="&#xe60e;" 
d="M729 399q-1 0 -4.5 1t-4.5 1.5t-4 1.5t-4 2t-3 2t-2.5 2.5t-1.5 3.5t-0.5 4t1.5 5q11 27 11.5 52.5t-10.5 42.5q-39 55 -190 -7v-1q-23 -9 -22 5q0 3 1 5q22 71 -10 103q-36 36 -121 3t-169 -115q-63 -63 -97.5 -126.5t-34.5 -119.5q0 -69 55 -123.5t139 -81.5t177 -27
q87 0 163 23t126 60t78.5 80.5t28.5 84.5q0 46 -29.5 76t-72.5 43zM436 83.5q-110 -10.5 -193 32t-90 114t66 129.5t182.5 68.5t192.5 -32t90 -114t-65.5 -129.5t-182.5 -68.5zM897.5 661q-44.5 46 -106 64t-124.5 6v0q-14 -3 -22 -14.5t-5 -24.5t15.5 -20.5t26.5 -4.5
q44 8 88 -4.5t75.5 -45.5t41 -76t-4.5 -82v0q-5 -13 1.5 -25t20.5 -16.5t27 2t17 19.5v0q20 55 7 115.5t-57.5 106.5zM808 579q-21 23 -51 32t-61 3q-12 -3 -18.5 -13t-4 -21.5t13 -18t22.5 -4.5v0q32 7 54.5 -17t11.5 -54v0q-3 -12 2.5 -22.5t17 -14t23 2t14.5 16.5
q10 28 3.5 58t-27.5 53zM485 392q-54 14 -107.5 -9t-76.5 -70q-24 -47 -3.5 -93t74.5 -63q57 -18 114.5 6t80.5 75q22 50 -2 95t-80 59zM430 233.5q-11 -16.5 -31.5 -23t-37.5 1.5q-18 7 -22.5 24t6.5 33.5t31 23t37 -1.5q18 -7 23 -24t-6 -33.5zM478 292.5
q-4 -6.5 -11.5 -9t-14.5 0t-8.5 9t1.5 12.5q10 15 26 9q7 -2 9 -8.5t-2 -13z" />
    <glyph glyph-name="yiduxinxi" unicode="&#xe695;" 
d="M512 838l-449 -281v-112v-393q0 -47 33 -80t79 -33h674q46 0 79 33t33 80v393v112zM119 52v410l254 -175l-251 -252q-3 9 -3 17zM849 -4h-674q-6 0 -12 1l258 258l91 -63l91 63l258 -258q-6 -1 -12 -1zM905 52q0 -8 -3 -17l-251 252l254 175v-410zM512 258l-393 271
l392 243l394 -243z" />
    <glyph glyph-name="youjianxinxiicon" unicode="&#xe696;" 
d="M890 698q-16 7 -38 7h-682q-22 0 -38 -7q-30 -12 -48.5 -39t-18.5 -60v-427q0 -33 18.5 -60t47.5 -39q16 -8 39 -8h682q23 0 39 8q29 12 47 39t18 60v427q0 33 -18 60t-48 39zM904 599v-427q0 -10 -4 -20q-5 7 -12 12l-218 195l225 243q3 3 8 9q1 -6 1 -12zM852 652
q6 0 13 -2q-2 -5 -8 -11l-311 -337q-14 -15 -35 -15t-35 15l-311 337q-6 6 -9 11q8 2 14 2h682zM122 152q-4 10 -4 20v427q0 5 1 12q5 -6 7 -9l226 -243l-218 -195q-7 -5 -12 -12zM170 118q-2 0 -7 1q2 3 5 5l219 196l51 -55q30 -32 73 -32t73 32l50 55l220 -196q3 -2 5 -5
q-5 -1 -7 -1h-682z" />
    <glyph glyph-name="tianjia" unicode="&#xe697;" 
d="M935 -60h-122q-8 0 -14 6t-6 14t6 14t14 6h102v102q0 8 6 14t14 6t14 -6t6 -14v-122q0 -8 -6 -14t-14 -6zM935 183q-8 0 -14 6t-6 14v122q0 9 6 14.5t14 5.5t14 -5.5t6 -14.5v-122q0 -8 -6 -14t-14 -6zM935 427q-8 0 -14 6t-6 14v122q0 8 6 14t14 6t14 -6t6 -14v-122
q0 -8 -6 -14t-14 -6zM935 670q-8 0 -14 6t-6 14v102h-102q-8 0 -14 6t-6 14t6 14t14 6h122q8 0 14 -6t6 -14v-122q0 -8 -6 -14t-14 -6zM692 -60h-122q-9 0 -14.5 6t-5.5 14t5.5 14t14.5 6h122q8 0 14 -6t6 -14t-6 -14t-14 -6zM692 792h-122q-9 0 -14.5 6t-5.5 14t5.5 14
t14.5 6h122q8 0 14 -6t6 -14t-6 -14t-14 -6zM669 427q16 0 28 -12t12 -29t-12 -29t-28 -12h-122v-121q0 -17 -12 -29t-28.5 -12t-28.5 12t-12 29v121h-122q-17 0 -28.5 12t-11.5 29t11.5 29t28.5 12h122v121q0 17 12 29t28.5 12t28.5 -12t12 -29v-121h122zM448 792h-122
q-8 0 -14 6t-6 14t6 14t14 6h122q8 0 14 -6t6 -14t-6 -14t-14 -6zM205 -60h-122q-8 0 -14 6t-6 14v122q0 8 6 14t14 6t14 -6t6 -14v-102h102q8 0 14 -6t6 -14t-6 -14t-14 -6zM205 792h-102v-102q0 -8 -6 -14t-14 -6t-14 6t-6 14v122q0 8 6 14t14 6h122q8 0 14 -6t6 -14
t-6 -14t-14 -6zM83 589q8 0 14 -6t6 -14v-122q0 -8 -6 -14t-14 -6t-14 6t-6 14v122q0 8 6 14t14 6zM83 345q8 0 14 -5.5t6 -14.5v-122q0 -8 -6 -14t-14 -6t-14 6t-6 14v122q0 9 6 14.5t14 5.5zM326 -20h122q8 0 14 -6t6 -14t-6 -14t-14 -6h-122q-8 0 -14 6t-6 14t6 14t14 6z
" />
    <glyph glyph-name="shanchu-o" unicode="&#xe698;" 
d="M206 832h-122q-8 0 -14 -6t-6 -14v-122q0 -8 6 -14t14.5 -6t14 6t5.5 14v102h102q8 0 14 5.5t6 14t-6 14.5t-14 6zM327 792h122q8 0 14 5.5t6 14t-5.5 14.5t-14.5 6h-122q-8 0 -14 -6t-6 -14.5t6 -14t14 -5.5zM692 832h-121q-9 0 -14.5 -6t-5.5 -14.5t5.5 -14t14.5 -5.5
h121q9 0 15 5.5t6 14t-6 14.5t-15 6zM936 832h-122q-8 0 -14 -6t-6 -14.5t6 -14t14 -5.5h101v-102q0 -8 6 -14t14.5 -6t14.5 6t6 14v122q0 8 -6 14t-14 6zM935.5 589q-8.5 0 -14.5 -6t-6 -14v-122q0 -9 6 -14.5t14.5 -5.5t14.5 6t6 14v122q0 8 -6 14t-14.5 6zM935.5 345
q-8.5 0 -14.5 -5.5t-6 -14.5v-121q0 -9 6 -15t14.5 -6t14.5 6t6 15v121q0 9 -6 14.5t-14.5 5.5zM935.5 102q-8.5 0 -14.5 -6t-6 -14v-101h-101q-8 0 -14 -6t-6 -14.5t6 -14.5t14 -6h122q8 0 14 6t6 14v122q0 8 -6 14t-14.5 6zM692 -19h-121q-9 0 -14.5 -6t-5.5 -14.5
t5.5 -14.5t14.5 -6h121q9 0 15 6t6 14.5t-6 14.5t-15 6zM449 -19h-122q-8 0 -14 -6t-6 -14.5t6 -14.5t14 -6h122q8 0 14 6t6 14.5t-5.5 14.5t-14.5 6zM206 -19h-102v101q0 8 -5.5 14t-14 6t-14.5 -6t-6 -14v-122q0 -8 6 -14t14 -6h122q8 0 14 6t6 14.5t-6 14.5t-14 6z
M84.5 183q8.5 0 14 6t5.5 15v121q0 9 -5.5 14.5t-14 5.5t-14.5 -5.5t-6 -14.5v-121q0 -9 6 -15t14.5 -6zM84.5 427q8.5 0 14 5.5t5.5 14.5v122q0 8 -5.5 14t-14 6t-14.5 -6t-6 -14v-122q0 -9 6 -14.5t14.5 -5.5zM345 345h325q16 0 28 12t12 29t-12 29t-28 12h-325
q-17 0 -28.5 -12t-11.5 -29t11.5 -29t28.5 -12z" />
    <glyph glyph-name="apple" unicode="&#xe699;" 
d="M885 96q-25 -75 -64 -133q-19 -27 -30.5 -42t-30.5 -34.5t-39 -28.5t-43 -9q-30 -1 -73.5 18t-79.5 19q-38 0 -81.5 -18.5t-71.5 -19.5q-21 -1 -41.5 8.5t-40.5 29.5t-33 36.5t-31 43.5q-31 44 -54.5 102t-36 121t-5.5 128t37 116q30 53 81.5 84.5t110.5 32.5
q33 1 85.5 -19.5t67.5 -20.5q14 0 44.5 12t66.5 23t68 7q15 0 32 -3.5t42.5 -12.5t50.5 -28.5t45 -47.5q-102 -69 -101 -177q1 -39 14 -73t29.5 -53.5t38 -35t30 -19.5t13.5 -6zM643 628q57 69 49 149q-35 -2 -73.5 -21.5t-64.5 -49.5q-24 -28 -39 -67t-10 -77q38 -2 75 17
t63 49v0z" />
    <glyph glyph-name="phone" unicode="&#xe600;" 
d="M756 -37h-488q-21 0 -36.5 13t-15.5 32v780q0 19 15.5 32t36.5 13h488q21 0 36.5 -13t15.5 -32v-780q0 -19 -15.5 -32t-36.5 -13zM512 8q14 0 24.5 9t10.5 21t-10.5 21t-24.5 9t-24.5 -9t-10.5 -21t10.5 -21t24.5 -9zM756 743h-18h-452h-18v-630h18h452h18v630z" />
    <glyph glyph-name="tao" unicode="&#xe60f;" 
d="M153 543l-51 -79l93 -58q2 -1 4 -2.5l8 -6t11 -9.5t10 -13t7 -17t0.5 -21t-7.5 -24q-12 -25 -53.5 -70.5t-75.5 -78.5t-35 -33l122 -77q26 57 47.5 102t27.5 58t11.5 27.5t13.5 39.5q18 49 17 89.5t-27 67.5q-36 36 -53.5 50.5t-69.5 54.5zM219 573q34 0 57.5 21t23.5 51
t-23.5 51.5t-57.5 21.5q-33 0 -56.5 -21.5t-23.5 -51.5t23.5 -51t56.5 -21zM945 564q-1 4 -2.5 11t-13.5 26t-30 34.5t-55 29.5t-85 18.5t-124 -5t-168 -35.5l28 55l-112 32l-5.5 -16.5t-16 -40t-26 -55.5t-35 -56.5t-44.5 -50.5q5 -3 13 -7.5t25 -14.5t28.5 -16.5
t11.5 -5.5q33 33 60 68q25 11 52 22q-50 -89 -88 -130l47 -42q33 31 68 69h40v-70h-157v-56h157v-133h-6q-43 2 -55 20q-5 10 -6 23.5t1.5 33.5t2.5 25h-109l-4 -3q-1 -3 -2 -9.5t-2 -25t0.5 -35.5t8.5 -37.5t19.5 -35t35.5 -24t55 -8.5q169 -5 267 71l16 -59l89 38l-60 148
l-73 -23l14 -50q-26 -20 -63 -33v117h153v56h-153v70h154v56h-274q34 41 40 60l-48 13q319 116 318 -60v-318v-7t-1 -15t-4 -21t-11 -22t-20 -20.5t-31.5 -13.5t-45.5 -3l-67 14l-16 -64q6 -2 16.5 -4.5t41.5 -6.5t59 -4.5t63.5 7t62 23t47 48t25.5 78.5q6 63 8 125t0 102.5
t-5.5 77t-5.5 48t-3 17.5v0z" />
    <glyph glyph-name="50" unicode="&#xe669;" 
d="M705 749h-386q-41 0 -70 -29t-29 -70v-701q0 -41 29 -69.5t70 -28.5h386q41 0 70 28.5t29 69.5v702q0 41 -29 69.5t-70 28.5zM439 722h146q6 0 11 -4.5t5 -11t-5 -11t-11 -4.5h-146q-6 0 -10.5 4.5t-4.5 11t4.5 11t10.5 4.5zM410 -77h-70q-7 0 -12 5t-5 12t5 12t12 5h70
q7 0 12 -5t5 -12t-5 -12t-12 -5zM572 -90q0 -8 -5.5 -14t-14.5 -6h-73q-8 0 -14 6t-6 14v21q0 8 6 14t14 6h73q9 0 14.5 -6t5.5 -14v-21zM684 -80h-70q-7 0 -12 5t-5 12t5 11.5t12 4.5h70q7 0 12 -4.5t5 -11.5t-5 -12t-12 -5zM731 47q0 -8 -6 -14t-14 -6h-398q-8 0 -14 6
t-6 14v577q0 9 6 15t14 6h398q8 0 14 -6t6 -15v-577zM409 243q0 -8 5.5 -13t12.5 -5h21v-51q0 -10 6.5 -17t16.5 -7t17 7t7 17v51h36v-51q0 -10 6.5 -17t16 -7t16.5 7t7 17v51h20q8 0 13.5 5t5.5 13v168h-207v-168zM652 412q-10 0 -16.5 -7t-6.5 -17v-92q0 -9 6.5 -16
t16.5 -7t16.5 7t6.5 16v92q0 10 -6.5 17t-16.5 7zM372 412q-10 0 -16.5 -7t-6.5 -17v-92q0 -9 6.5 -16t16.5 -7q9 0 16 7t7 16v92q0 10 -6.5 17t-16.5 7zM561 499l19 27q3 4 0 5q-3 2 -5 -1l-20 -29q-22 8 -43 8t-43 -8l-20 29q-2 3 -4 1q-3 -2 -1 -5l19 -27
q-50 -24 -54 -73h206q-5 50 -54 73zM468.5 455q-4.5 0 -8 3.5t-3.5 8t3.5 8t8 3.5t8 -3.5t3.5 -8t-3.5 -8t-8 -3.5zM557 455q-5 0 -8 3.5t-3 8t3 8t8 3.5t8.5 -3.5t3.5 -8t-3.5 -8t-8.5 -3.5z" />
    <glyph glyph-name="android" unicode="&#xe66a;" 
d="M839.5 455q-22.5 0 -38.5 -16t-16 -39v-216q0 -23 16 -39.5t38.5 -16.5t38.5 16.5t16 39.5v216q0 23 -16 39t-38.5 16zM182.5 455q-22.5 0 -38.5 -16t-16 -39v-216q0 -23 16 -39.5t38.5 -16.5t38.5 16.5t16 39.5v216q0 23 -16 39t-38.5 16zM270 454v-395
q0 -18 12.5 -30.5t29.5 -12.5h49v-120q0 -23 16 -39.5t38.5 -16.5t38.5 16.5t16 39.5v120h84v-120q0 -23 16 -39.5t39 -16.5t38.5 16.5t15.5 39.5v120h49q18 0 30 12.5t12 30.5v395h-484zM626 658l45 65q5 7 -1.5 11.5t-11.5 -2.5l-46 -68q-48 19 -101 19t-101 -19l-46 68
q-5 7 -11 2.5t-2 -11.5l45 -65q-54 -25 -88.5 -70t-38.5 -99h484q-4 54 -38.5 99t-88.5 70zM409 556q-11 0 -19 8t-8 19t8 18.5t19 7.5t19 -7.5t8 -18.5t-8 -19t-19 -8zM617 556q-11 0 -19 8t-8 19t8 18.5t19 7.5t18.5 -7.5t7.5 -18.5t-7.5 -19t-18.5 -8z" />
    <glyph glyph-name="1" unicode="&#xe6ff;" 
d="M568 37q7 0 11.5 5t4.5 11v302l125 -125l23 23l-164 163l-163 -163l23 -23l124 124v-269q0 -6 -4.5 -11t-11.5 -5h-302l-9 1q-81 3 -137 61t-56 139q0 84 59 142.5t142 58.5q13 0 29 -2l36 -5l4 36q8 85 71.5 142t148.5 57t148 -56.5t73 -140.5l3 -33l38 2h7
q83 0 142 -58.5t59 -142.5q0 -81 -56 -139t-137 -61l-12 -1h-48v-32h58v1h3q94 3 159 70.5t65 161.5q0 97 -68.5 165t-164.5 68h-10l-6 -1l-1 3q-11 97 -83 161.5t-169 64.5t-169.5 -65t-82.5 -163v-3l-4 1q-18 2 -33 2q-96 0 -164.5 -68t-68.5 -165q0 -94 65 -161.5
t159 -70.5l3 -1h325h16z" />
    <glyph glyph-name="gouwuche-1" unicode="&#xe6f6;" 
d="M920 686h-679l-12 97q-1 12 -10.5 20t-21.5 8h-7q-4 0 -7 -1h-83q-15 0 -25 -9t-10 -22.5t10 -22.5t25 -9h69l67 -548q1 -12 10.5 -20.5t21.5 -8.5h7q4 0 7 1h549q15 0 25 9.5t10 22.5t-10 22.5t-25 9.5h-535l-8 67h545q12 0 22.5 8t12.5 20l74 327q3 12 -3.5 20.5
t-18.5 8.5zM295 30q0 -32 22.5 -54.5t54.5 -22.5t55 22.5t23 54.5t-23 55t-55 23t-54.5 -23t-22.5 -55zM679 30q0 -32 22.5 -54.5t54.5 -22.5t55 22.5t23 54.5t-23 55t-55 23t-54.5 -23t-22.5 -55z" />
    <glyph glyph-name="shouji" unicode="&#xe602;" 
d="M692 800h-335q-31 0 -53.5 -20.5t-22.5 -48.5v-694q0 -28 22.5 -48.5t53.5 -20.5h335q31 0 53.5 20.5t22.5 48.5v694q0 28 -22.5 48.5t-53.5 20.5zM479 745h91q6 0 10.5 -4.5t4.5 -10t-4.5 -9.5t-10.5 -4h-91q-6 0 -10.5 4t-4.5 9.5t4.5 10t10.5 4.5zM524.5 -4
q-18.5 0 -32 12t-13.5 29.5t13.5 29.5t32 12t32 -12t13.5 -29.5t-13.5 -29.5t-32 -12zM738 107h-427v554h427v-554z" />
    <glyph glyph-name="zhongping" unicode="&#xe712;" 
d="M511.5 854q91.5 0 174.5 -35.5t143 -95.5t95.5 -143t35.5 -174t-35.5 -174t-95.5 -143t-143 -96t-174.5 -36t-174.5 36t-143 96t-95.5 143t-35.5 174t35.5 174t95.5 143t143 95.5t174.5 35.5zM904 405.5q0 106.5 -52.5 197t-143 143t-197 52.5t-197 -52.5t-143 -143
t-52.5 -197t52.5 -196.5t143 -143t197 -53t197 53t143 143t52.5 196.5zM708 528q33 0 46 -27t-0.5 -53.5t-46 -26.5t-46 26.5t0 53.5t46.5 27zM315 266h393v-56h-393v56zM315.5 528q32.5 0 46 -27t0 -53.5t-46.5 -26.5t-46 26.5t0.5 53.5t46 27z" />
    <glyph glyph-name="chaping" unicode="&#xe715;" 
d="M513 854q91 0 173.5 -35.5t142.5 -95.5t95.5 -143t35.5 -174t-35.5 -173.5t-95.5 -142.5t-142.5 -96t-173.5 -36t-174 36t-143 96t-95.5 142.5t-35.5 173.5t35.5 174t95.5 143t143 95.5t174 35.5zM905 406.5q0 106.5 -52.5 196.5t-143 142.5t-197 52.5t-196.5 -52.5
t-142.5 -142.5t-52.5 -196.5t52.5 -197t142.5 -143t196.5 -52.5t197 52.5t143 143t52.5 197zM732 198l-46 -32q-79 113 -166 113v0q-28 0 -57 -12t-49 -27t-39.5 -34t-25.5 -27t-9 -13l-46 32q5 7 12.5 17t31 33t48 40.5t61.5 32t73 14.5q116 0 212 -137zM709 528
q33 0 46 -26.5t-0.5 -53.5t-46 -27t-46 27t0 53.5t46.5 26.5zM317.5 528q32.5 0 45.5 -26.5t-0.5 -53.5t-46 -27t-46 27t0.5 53.5t46.5 26.5z" />
    <glyph glyph-name="jingxuan" unicode="&#xe70e;" 
d="M895 256l-256 47l-127 218l-126 -218l-257 -47l179 -182l-32 -247l236 106l237 -106l-32 247zM832 773h-128v-378h128v378zM321 773h-128v-378h128v378zM576 773h-127v-189h127v189z" />
    <glyph glyph-name="icon" unicode="&#xe66b;" 
d="M872 720h-720q-36 0 -61.5 -25.5t-25.5 -60.5v-490q0 -36 25.5 -61t61.5 -25h720q36 0 61.5 25t25.5 61v490q0 35 -25.5 60.5t-61.5 25.5zM547 92q-9 -12 -16 -12q-3 0 -8 2t-9 2t-9 -2t-8 -2q-7 0 -16 12q-8 10 -10.5 23.5t3.5 25.5q7 12 22 12q3 0 9 -2t8 -2q1 0 8 2.5
t12 1.5q12 0 19 -9q-12 -7 -12 -19q1 -13 14 -19q-3 -8 -7 -14zM517 169q7 7 16 8q1 -8 -6 -16q-6 -7 -15 -7q-1 8 5 15zM901 260q0 -24 -17 -41.5t-41 -17.5h-662q-24 0 -41 17.5t-17 41.5v345q0 24 17 41t41 17h662q24 0 41 -17t17 -41v-345zM697 -120q-6 5 -19.5 14
t-24.5 15l-11 6v113h-260v-115l-52 -28q-1 -1 -2 -3t-2.5 -7.5t-1.5 -9t3.5 -6.5t10.5 -3h347l1 0.5t3 2l4 3t4 4t3 4.5t0 5t-3 5z" />
    <glyph glyph-name="lock" unicode="&#xe69a;" 
d="M427 151q0 35 25 60t60 25t60 -25t25 -60q0 -47 -39 -72q9 -50 18 -110q0 -13 -9.5 -22.5t-22.5 -9.5h-64q-13 0 -22.5 9.5t-9.5 22.5l18 110q-39 25 -39 72zM341 385v150q0 70 50 120t121 50t121 -50t50 -120v-150h-342zM235 535v-150h-64q-36 0 -61 -25t-25 -60v-427
q0 -35 25 -60t61 -25h682q36 0 61 25t25 60v427q0 35 -25 60t-61 25h-64v150q0 115 -81 196t-196 81t-196 -81t-81 -196v0z" />
    <glyph glyph-name="sort" unicode="&#xe611;" 
d="M384 576h512q13 0 22.5 9.5t9.5 22.5t-9.5 22.5t-22.5 9.5h-512q-13 0 -22.5 -9.5t-9.5 -22.5t9.5 -22.5t22.5 -9.5zM896 416h-512q-13 0 -22.5 -9.5t-9.5 -22.5t9.5 -22.5t22.5 -9.5h512q13 0 22.5 9.5t9.5 22.5t-9.5 22.5t-22.5 9.5zM896 192h-512q-13 0 -22.5 -9.5
t-9.5 -22.5t9.5 -22.5t22.5 -9.5h512q13 0 22.5 9.5t9.5 22.5t-9.5 22.5t-22.5 9.5zM192 608zM128 608q0 26 19 45t45 19t45 -19t19 -45t-19 -45t-45 -19t-45 19t-19 45zM192 384zM128 384q0 26 19 45t45 19t45 -19t19 -45t-19 -45t-45 -19t-45 19t-19 45zM192 160zM128 160
q0 26 19 45t45 19t45 -19t19 -45t-19 -45t-45 -19t-45 19t-19 45z" />
    <glyph glyph-name="tiwen" unicode="&#xe701;" 
d="M785 651h-546q-39 0 -66.5 -27.5t-27.5 -66.5v-363q0 -39 27.5 -67t66.5 -28l277 1l144 -145v0q7 -6 16 -6t15.5 6.5t6.5 15.5t-7 16v0l-148 147v0q-5 6 -12 7v0h-3v0l-277 -1q-29 0 -47 16t-18 49v340q0 65 75 65h512q34 0 49.5 -15t15.5 -50v-340q0 -35 -16.5 -50
t-58.5 -15h-19v0q-9 0 -15 -6t-6 -14.5t6 -14.5t15 -6v0h41q39 0 66.5 28t27.5 67v363q0 39 -27.5 66.5t-66.5 27.5zM573 374q35 31 44 50.5t9 40.5q0 41 -32 68.5t-82 27.5q-48 0 -78.5 -26.5t-35.5 -75.5v-1v-1v-1q0 -9 6.5 -16t15.5 -7t15 6t7 15v0q12 71 71 71
q29 0 49 -19t20 -45q0 -12 -6 -24t-30 -33q-18 -16 -28.5 -27t-17 -23.5t-8.5 -25.5q-2 -14 -2 -31v0v-0.5v-0.5q0 -9 6 -15t15 -6t15 6t6 15v1v1q0 24 7 38t34 38zM512 224zM487 224.5q0 10.5 7.5 17.5t17.5 7t17.5 -7t7.5 -17.5t-7.5 -17.5t-17.5 -7t-17.5 7t-7.5 17.5z
" />
    <glyph glyph-name="shangjiantou" unicode="&#xe69b;" 
d="M512 422q-205 -198 -243 -234q-38 -37 -82 -79q-27 -27 -49 -5t6 49q339 337 340 338q16 16 28.5 16t29.5 -17q61 -61 174.5 -174t163.5 -162q28 -27 7 -49q-21 -24 -51 5q-95 92 -299 289q-1 1 -25 23z" />
    <glyph glyph-name="xiazai-o" unicode="&#xe704;" 
d="M929 0v0h-834q-13 0 -22.5 -9.5t-9.5 -23t9.5 -23t22.5 -9.5h834v0q13 0 22.5 9.5t9.5 23t-9.5 23t-22.5 9.5zM488 69q10 -9 23 -9v0v0q14 0 24 9l357 358q10 10 10 23.5t-9.5 23t-23.5 10t-24 -9.5l-300 -301l-1 626v0q0 14 -9.5 24t-23 10t-23.5 -10t-10 -24v0v-626
l-301 301q-9 9 -23 9t-23.5 -9.5t-9.5 -23.5t10 -23z" />
    <glyph glyph-name="bus" unicode="&#xe69d;" 
d="M219 117q0 30 -21 51.5t-51.5 21.5t-52 -21.5t-21.5 -51.5t21.5 -51.5t52 -21.5t51.5 21.5t21 51.5zM805 117q0 30 -21.5 51.5t-52 21.5t-52 -21.5t-21.5 -51.5t21.5 -51.5t52 -21.5t52 21.5t21.5 51.5zM778 343l-41 220q-3 13 -13 21.5t-23 8.5h-524q-14 0 -24 -8.5
t-12 -21.5l-42 -220q-2 -17 8.5 -30t27.5 -13h607q17 0 28 13t8 30zM649 693.5q0 11.5 -8 19.5t-19 8h-366q-11 0 -19 -8t-8 -19.5t8 -19.5t19 -8h366q11 0 19 8t8 19.5zM878 279v-345h-73v-73q0 -30 -21.5 -51.5t-52 -21.5t-52 21.5t-21.5 51.5v73h-439v-73
q0 -30 -21 -51.5t-51.5 -21.5t-52 21.5t-21.5 51.5v73h-73v345q0 64 14 127l59 260q5 44 55.5 78t131.5 51t179 17t178.5 -17t131 -51t56.5 -78l60 -260q13 -58 13 -127z" />
    <glyph glyph-name="fax" unicode="&#xe69e;" horiz-adv-x="1025" 
d="M165 593q37 0 64 -27t27 -65v-622q0 -37 -27 -64t-64 -27h-74q-37 0 -64 27t-27 64v622q0 38 27 65t64 27h74zM951 499q33 -19 53 -52.5t20 -73.5v-439q0 -60 -43 -103t-103 -43h-494q-38 0 -64.5 27t-26.5 64v878q0 23 16 39t38 16h384q23 0 50.5 -11.5t43.5 -27.5
l87 -87q16 -16 27.5 -43.5t11.5 -49.5v-94v0zM530 -66v73q0 8 -5 13.5t-13 5.5h-73q-8 0 -13 -5.5t-5 -13.5v-73q0 -8 5 -13t13 -5h73q8 0 13 5t5 13zM530 81v73q0 8 -5 13t-13 5h-73q-8 0 -13 -5t-5 -13v-73q0 -8 5 -13.5t13 -5.5h73q8 0 13 5.5t5 13.5zM530 227v73
q0 8 -5 13t-13 5h-73q-8 0 -13 -5t-5 -13v-73q0 -8 5 -13t13 -5h73q8 0 13 5t5 13zM677 -66v73q0 8 -5.5 13.5t-13.5 5.5h-73q-8 0 -13 -5.5t-5 -13.5v-73q0 -8 5 -13t13 -5h73q8 0 13.5 5t5.5 13zM677 81v73q0 8 -5.5 13t-13.5 5h-73q-8 0 -13 -5t-5 -13v-73q0 -8 5 -13.5
t13 -5.5h73q8 0 13.5 5.5t5.5 13.5zM677 227v73q0 8 -5.5 13t-13.5 5h-73q-8 0 -13 -5t-5 -13v-73q0 -8 5 -13t13 -5h73q8 0 13.5 5t5.5 13zM823 -66v73q0 8 -5 13.5t-13 5.5h-74q-8 0 -13 -5.5t-5 -13.5v-73q0 -8 5 -13t13 -5h74q8 0 13 5t5 13zM823 81v73q0 8 -5 13t-13 5
h-74q-8 0 -13 -5t-5 -13v-73q0 -8 5 -13.5t13 -5.5h74q8 0 13 5.5t5 13.5zM823 227v73q0 8 -5 13t-13 5h-74q-8 0 -13 -5t-5 -13v-73q0 -8 5 -13t13 -5h74q8 0 13 5t5 13zM878 446v147h-92q-23 0 -39 16t-16 38v92h-365v-293h512z" />
    <glyph glyph-name="heart-o" unicode="&#xe603;" 
d="M951 459q0 47 -12.5 82.5t-31.5 56t-46.5 34t-53.5 18t-56 4.5t-64 -14.5t-63 -36.5t-49.5 -41.5t-34.5 -35.5q-10 -12 -28 -12t-28 12q-14 16 -34.5 35.5t-49.5 41.5t-63 36.5t-64 14.5t-56 -4.5t-53.5 -18t-46.5 -34t-31.5 -56t-12.5 -82.5q0 -96 107 -202l332 -320
l331 319q108 107 108 203v0zM1024 459q0 -126 -131 -257l-356 -343q-10 -10 -25 -10t-25 10l-357 344q-5 5 -15 15.5t-32 37.5t-39 55.5t-30.5 69t-13.5 78.5q0 126 72.5 197t200.5 71q36 0 72.5 -12.5t68.5 -33t54.5 -39t43.5 -39.5q21 21 43.5 39.5t54.5 39t68.5 33
t72.5 12.5q128 0 200.5 -71t72.5 -197v0z" />
    <glyph glyph-name="sign-out" unicode="&#xe69f;" 
d="M402 -23q0 -2 0.5 -11t0.5 -15t-1.5 -13.5t-6 -11.5t-11.5 -4h-183q-68 0 -116 48.5t-48 116.5v402q0 68 48 116.5t116 48.5h183q7 0 12.5 -5.5t5.5 -13.5q0 -2 0.5 -11t0.5 -15t-1.5 -13.5t-6 -11.5t-11.5 -4h-183q-37 0 -64 -26.5t-27 -64.5v-402q0 -38 26.5 -65
t64.5 -27h179h6l7 -2l4 -3l4 -5l1 -8v0zM933 288q0 -15 -11 -26l-311 -311q-11 -10 -26 -10t-25.5 10.5t-10.5 25.5v165h-256q-15 0 -26 10.5t-11 25.5v220q0 15 11 25.5t26 10.5h256v165q0 15 10.5 25.5t25.5 10.5t26 -10l311 -311q11 -11 11 -26z" />
    <glyph glyph-name="thumb-tack" unicode="&#xe601;" 
d="M457 306v256q0 8 -5 13.5t-13 5.5t-13 -5.5t-5 -13.5v-256q0 -8 5 -13t13 -5t13 5t5 13zM841 105q0 -15 -11 -25.5t-25 -10.5h-246l-29 -276q-1 -7 -6 -12t-11 -5h-1q-15 0 -18 15l-44 278h-231q-14 0 -25 10.5t-11 25.5q0 70 45 126.5t101 56.5v293q-30 0 -51.5 21.5
t-21.5 51t21.5 51.5t51.5 22h366q30 0 51.5 -22t21.5 -51.5t-21.5 -51t-51.5 -21.5v-293q56 0 101 -56.5t45 -126.5z" />
    <glyph glyph-name="laba" unicode="&#xe66c;" 
d="M66 92q0 -13 9.5 -22.5t22.5 -9.5h78q13 0 22.5 9.5t9.5 22.5v415q0 13 -9.5 22.5t-22.5 9.5h-78q-13 0 -22.5 -9.5t-9.5 -22.5v-415zM246 93q0 -13 8 -27.5t19 -22.5l235 -153q11 -7 19 -3t8 17v792q0 13 -8 17t-19 -3l-235 -153q-11 -7 -19 -21.5t-8 -28.5v-414z
M246 61zM922 260h-257q-17 0 -28.5 11.5t-11.5 28.5t11.5 28.5t28.5 11.5h257q17 0 28.5 -11.5t11.5 -28.5t-11.5 -28.5t-28.5 -11.5zM846.5 -124q-16.5 0 -28.5 12l-182 182q-11 12 -11 28.5t11.5 28t28 11.5t28.5 -11l182 -182q12 -12 12 -28.5t-12 -28.5t-28.5 -12z
M664.5 462q-16.5 0 -28 11.5t-11.5 28t11 28.5l182 182q12 12 28.5 12t28.5 -12t12 -28.5t-12 -28.5l-182 -182q-12 -11 -28.5 -11z" />
    <glyph glyph-name="angle-double-up" unicode="&#xe6a0;" 
d="M797 71.5q0 -7.5 -6 -13.5l-28 -28q-6 -6 -13.5 -6t-12.5 6l-225 225l-225 -225q-5 -6 -12.5 -6t-13.5 6l-28 28q-6 6 -6 13.5t6 13.5l266 266q6 6 13 6t13 -6l266 -266q6 -6 6 -13.5zM797 291q0 -7 -6 -13l-28 -29q-6 -5 -13.5 -5t-12.5 5l-225 225l-225 -225
q-5 -5 -12.5 -5t-13.5 5l-28 29q-6 6 -6 13t6 13l266 266q6 6 13 6t13 -6l266 -266q6 -6 6 -13z" />
    <glyph glyph-name="redo2" unicode="&#xe6a1;" 
d="M576 648v248l384 -384l-384 -384v254q-93 2 -164 -14.5t-114 -46t-68.5 -71t-32.5 -88t-0.5 -97.5t23.5 -99t42 -94q-52 56 -89 121t-56 130.5t-20 131t15.5 124.5t55 109.5t94 86.5t136 55.5t178.5 17.5z" />
    <glyph glyph-name="stack" unicode="&#xe6a2;" 
d="M1024 576l-512 256l-512 -256l512 -256zM512 747l342 -171l-342 -171l-342 171zM921 435l103 -51l-512 -256l-512 256l103 51l409 -204zM921 243l103 -51l-512 -256l-512 256l103 51l409 -204z" />
    <glyph glyph-name="undo2" unicode="&#xe6a3;" 
d="M762 -128q25 46 42 94t23.5 99t-0.5 97.5t-32.5 88t-68.5 71t-114 46t-164 14.5v-254l-384 384l384 384v-248q98 2 178.5 -17.5t136 -55.5t94 -86.5t55 -109.5t15.5 -124.5t-20 -131t-56 -130.5t-89 -121z" />
    <glyph glyph-name="youtube" unicode="&#xe6a4;" 
d="M832 768h-640q-79 0 -135.5 -56.5t-56.5 -135.5v-384q0 -79 56.5 -135.5t135.5 -56.5h640q79 0 135.5 56.5t56.5 135.5v384q0 79 -56.5 135.5t-135.5 56.5zM384 128v512l320 -256z" />
    <glyph glyph-name="commentso" unicode="&#xe6a5;" 
d="M402.5 593q-87.5 0 -163.5 -30t-121 -81t-45 -109q0 -47 30.5 -90.5t85.5 -75.5l55 -32l-20 -48q19 12 35 23l26 17l30 -5q44 -8 87 -8q88 0 164 29.5t120.5 80.5t44.5 109t-44.5 109t-120.5 81t-163.5 30zM402 666q109 0 202 -39.5t147 -106.5t54 -146.5t-54 -147
t-147 -106.5t-202 -39q-49 0 -100 9q-71 -51 -159 -73q-21 -6 -49 -10h-2q-6 0 -11.5 5t-6.5 12q-1 2 -1 4t3 3.5t1 3.5l2 3l2 3l2 3l2 3l3 2q3 4 13 14.5t14.5 16.5t13 16.5t14.5 22t12 25.5q-71 41 -111.5 101t-40.5 128q0 80 53.5 147t146.5 106.5t202 39.5h-3zM875 -2
q5 -14 11 -25.5t14.5 -22t13 -16.5t15 -17t12.5 -14q1 -1 2.5 -3t2.5 -2.5t2.5 -2.5t2.5 -4l1 -2l1 -4l3 -4l-1 -3q-1 -8 -7 -12.5t-13 -4.5q-28 4 -49 9q-88 23 -159 73q-51 -9 -100 -9q-155 0 -270 76q33 -3 50 -3q92 0 177 26t151 74q71 52 109.5 121t38.5 145
q0 44 -13 87q73 -41 116 -102t43 -131q0 -69 -40.5 -128.5t-111.5 -100.5h-2z" />
    <glyph glyph-name="heart" unicode="&#xe664;" 
d="M512 -139q-15 0 -25 10l-357 344q-5 5 -15 15.5t-32 37.5t-39 55.5t-30.5 69t-13.5 78.5q0 126 72.5 197t200.5 71q36 0 72.5 -12.5t68.5 -33t54.5 -39t43.5 -39.5q21 21 43.5 39.5t54.5 39t68.5 33t72.5 12.5q128 0 200.5 -71t72.5 -197t-131 -257l-356 -343
q-10 -10 -25 -10z" />
    <glyph glyph-name="signin" unicode="&#xe6a6;" 
d="M750 300q0 -15 -11 -26l-311 -311q-11 -10 -26 -10t-25.5 10.5t-10.5 25.5v165h-256q-15 0 -26 10.5t-11 25.5v220q0 15 11 25.5t26 10.5h256v165q0 15 10.5 25.5t25.5 10.5t26 -10l311 -311q11 -11 11 -26zM951 501v-402q0 -68 -48.5 -116.5t-116.5 -48.5h-183
q-7 0 -12.5 5.5t-5.5 13.5q0 2 -0.5 11t3 15t1.5 13.5t5.5 11t12.5 3.5h182q38 0 65 27t27 65v402q0 38 -27 65t-65 27h-178h-6l-7 2l-5 3l-4 5l-1 8q0 2 -0.5 11t3 15t2 13.5t5.5 11.5t12 4h183q68 0 116 -48.5t48 -116.5h-6z" />
    <glyph glyph-name="starhalfo" unicode="&#xe6ca;" 
d="M714 265l147 143l-203 30l-38 5l-17 35l-91 184v-551l34 -17l181 -96l-34 203l-7 37zM945 388l-208 -202l49 -286q3 -19 -3 -29.5t-20 -10.5q-9 0 -22 7l-257 135l-257 -135q-13 -7 -22 -7q-14 0 -20 10.5t-3 29.5l49 286l-208 202q-18 18 -13 34t31 20l286 41l129 260
q11 24 28 24q16 0 28 -24l129 -260l286 -41q26 -4 31 -20t-13 -34z" />
    <glyph glyph-name="thumbsdown" unicode="&#xe6a7;" 
d="M183 483q0 -15 -11 -26t-26 -11t-25.5 11t-10.5 26t10.5 25.5t25.5 10.5t26 -10.5t11 -25.5zM274 190v366q0 15 -10.5 26t-25.5 11h-165q-15 0 -25.5 -11t-10.5 -26v-366q0 -15 10.5 -25.5t25.5 -10.5h165q15 0 25.5 10.5t10.5 25.5zM919 275q32 -34 32 -85
q-1 -44 -33 -76.5t-77 -32.5h-158q2 -8 4.5 -14t6.5 -13t5 -10q11 -21 16 -32.5t10.5 -33.5t5.5 -44q0 -13 3 -22t-2.5 -26t-7 -28.5t-14 -25.5t-22.5 -23t-34 -15t-47 -6q-15 0 -26 11q-12 11 -20 28.5t-11 30t-7 34.5q-5 24 -7.5 34.5t-10 27.5t-17.5 28q-19 19 -58 68
q-28 37 -57.5 69.5t-43.5 33.5t-24.5 11.5t-10.5 25.5v366q0 15 11 25.5t26 11.5q20 0 90 25q44 15 69 22.5t69.5 16.5t81.5 9h74q76 -1 113 -45q33 -39 28 -103q22 -21 31 -54q9 -35 0 -67q26 -35 24 -78q0 -18 -8 -44h-4z" />
    <glyph glyph-name="markfill" unicode="&#xe612;" 
d="M512 832q-185 0 -316.5 -112.5t-131.5 -271.5q0 -137 100.5 -242.5t256.5 -133.5l65 -91q10 -13 26 -13t26 13l65 91q156 28 256.5 133.5t100.5 242.5q0 159 -131.5 271.5t-316.5 112.5zM288.5 384q-26.5 0 -45.5 19t-19 45t19 45t45.5 19t45 -19t18.5 -45t-18.5 -45
t-45 -19zM512.5 384q-26.5 0 -45.5 19t-19 45t19 45t45.5 19t45 -19t18.5 -45t-18.5 -45t-45 -19zM736.5 384q-26.5 0 -45.5 19t-19 45t19 45t45.5 19t45 -19t18.5 -45t-18.5 -45t-45 -19z" />
    <glyph glyph-name="gouwuche" unicode="&#xe604;" 
d="M374 129q-40 0 -68 -28t-28 -67.5t28 -67.5t68 -28t68 28t28 67.5t-28 67.5t-68 28zM374 -20q-22 0 -37.5 16t-15.5 38t15.5 37.5t37.5 15.5t37.5 -15.5t15.5 -37.5t-15.5 -38t-37.5 -16zM215 704l-22 128h-128v-43h89l103 -596h596v43h-557l-12 66l569 61l106 298v43
h-744zM831 406l-554 -62l-55 317h688zM735.5 129q-39.5 0 -67.5 -28t-28 -67.5t28 -67.5t67.5 -28t67.5 28t28 67.5t-28 67.5t-67.5 28zM736 -20q-22 0 -38 16t-16 38t16 37.5t38 15.5t37.5 -15.5t15.5 -37.5t-15.5 -38t-37.5 -16z" />
    <glyph glyph-name="link" unicode="&#xe6a8;" 
d="M495 117l-149 -149q-33 -33 -83 -33t-83 33q-35 34 -35 83t35 83l186 187q35 34 83.5 34t83.5 -34q12 -12 28.5 -12t28.5 12t12 28.5t-12 28.5q-58 59 -140.5 59t-140.5 -59l-187 -186q-58 -58 -58 -140.5t58 -141t140.5 -58.5t141.5 58l149 150q12 12 12 28.5t-12 28.5
t-29 12t-29 -12v0zM901 689q-58 59 -140.5 59t-140.5 -59l-150 -149q-11 -12 -11 -29t11.5 -28.5t28.5 -11.5t29 11l149 150q34 33 83.5 33t83.5 -33q34 -35 34 -83.5t-34 -83.5l-187 -186q-33 -33 -83 -33t-83 33q-12 12 -29 12t-29 -12t-12 -29t12 -29q58 -58 140.5 -58
t141.5 58l186 187q58 58 58 140.5t-58 140.5v0zM901 689z" />
    <glyph glyph-name="phone_1" unicode="&#xe6cf;" 
d="M868 -128q45 0 72 32l65 61q19 26 3 47q-67 101 -187 191q-23 17 -46 0l-94 -94q-8 -8 -20 -10t-23 3q-115 66 -229.5 182.5t-172.5 231.5q-5 10 -3 22t10 21l93 93q9 9 10.5 20.5t-6.5 22.5q-72 108 -187 194q-11 8 -24.5 6.5t-22.5 -9.5l-64 -61q-27 -33 -33 -76
q-2 -70 17.5 -155.5t54.5 -149.5q63 -133 206.5 -280.5t271.5 -208.5v0q64 -38 150 -60.5t159 -22.5z" />
    <glyph glyph-name="dianhua" unicode="&#xe6d1;" 
d="M609 553q28 34 43 81q15 48 15 101q42 -16 55 -30t13 -39q0 -44 -21 -86.5t-44 -42.5q-8 0 -23 4q-13 3 -38 12v0zM180 76q-66 83 -94 155q-28 73 -28 155q0 89 34 173q35 84 99 148t147 98q83 35 173 35q91 0 173 -34t147 -99q64 -64 99 -147.5t35 -173.5
q0 -89 -35 -172.5t-99 -147.5t-147.5 -98.5t-172.5 -34.5q-109 0 -175 35q-65 35 -65 92q0 12 4 24q5 11 15 24q10 -9 18 -13q7 -5 14 -5q10 0 31 17q20 18 41 44q16 23 28 52q12 28 12 36q0 5 -14 22t-14 34q0 23 13 60q14 39 38 90q29 59 47 82t37 30q4 2 15 3q32 3 49 28
q15 25 26 64q11 40 11 67q0 22 -7 30t-29 8q-35 0 -60 -5t-37 -15q-16 -11 -50 -54q-34 -44 -70 -99q-65 -102 -106 -217q-42 -115 -42 -173q0 -11 5 -24t18 -33q-18 -22 -26 -43t-8 -43q0 -71 77 -117t204 -46q97 0 189.5 38.5t162.5 107.5q70 70 108 162t38 190
q0 99 -38 190q-38 90 -108 161t-161 109q-91 37 -191 37q-99 0 -190 -37.5t-161 -108.5q-70 -69 -108 -161t-38 -190q0 -86 26 -159q27 -74 78 -131q10 -13 21 -19q10 -6 19 -6q2 0 8 1q2 1 14 4v0v0zM347 74q42 30 70 70q27 39 39 86q30 -19 40 -31t10 -25q0 -34 -35 -80
q-34 -46 -65 -46q-9 0 -25 7q-14 6 -34 19v0z" />
    <glyph glyph-name="minus" unicode="&#xe6a9;" 
d="M512 812q-139 0 -257 -68.5t-186.5 -186.5t-68.5 -257t68.5 -257t186.5 -186.5t257 -68.5t257 68.5t186.5 186.5t68.5 257t-68.5 257t-186.5 186.5t-257 68.5zM768 215h-512v170h512v-170z" />
    <glyph glyph-name="list" unicode="&#xe707;" 
d="M419 303h-200v-40h179q9 21 21 40zM219 183v-40h160q-1 10 -1 20t1 20h-160zM433 4h-274q-17 0 -28.5 11.5t-11.5 28.5v598q0 16 11.5 28t28.5 12h359v-180q0 -33 23 -56t56 -23h160v-30q21 -11 40 -25v74l-7 8l1 7l-246 265h-56h-20h-11h-299q-33 0 -56.5 -23.5
t-23.5 -56.5v-598q0 -33 23.5 -56.5t56.5 -23.5h313q-22 18 -39 40v0zM558 649l174 -187h-135q-16 0 -27.5 12t-11.5 28v147zM219 383h199v40h-199v-40zM938 -109l-104 104q-13 -15 -28 -28l104 -104q6 -6 14 -6t14 6t6 14t-6 14zM637.5 383q-90.5 0 -155 -64.5
t-64.5 -155.5t64.5 -155t155 -64t155 64t64.5 155t-64.5 155.5t-155 64.5zM637.5 -16q-74.5 0 -127 52.5t-52.5 127t52.5 127t127 52.5t127 -52.5t52.5 -127t-52.5 -127t-127 -52.5zM418 542h-199v-40h199v40zM498 163q0 -9 1 -20h158v40h-158q-1 -11 -1 -20zM540 263h117
v38q-11 2 -20 2q-56 0 -97 -40z" />
    <glyph glyph-name="peoplefill" unicode="&#xe614;" 
d="M641 284v18q127 89 127 321q0 113 -66.5 177t-185.5 64h-8q-119 0 -185.5 -64t-66.5 -177q0 -231 128 -321v-18q-76 -10 -139 -31.5t-106 -56.5t-43 -76q0 -185 416 -185t416 185q0 41 -43 76t-106 56t-138 32z" />
    <glyph glyph-name="servicefill" unicode="&#xe615;" 
d="M609 224q-37 0 -69 4q-13 1 -21 11.5t-6.5 23.5t11.5 21.5t23 6.5q70 -7 139.5 3t83.5 40q6 12 18.5 16.5t24.5 -1t16.5 -18t-1.5 -24.5q-40 -83 -219 -83zM896 256q-13 0 -22.5 9.5t-9.5 22.5v110l-43 16q-21 7 -21 30q0 119 -84.5 203.5t-203.5 84.5t-203.5 -84.5
t-84.5 -203.5q0 -17 -13 -26l-19 -14v-116q0 -13 -9.5 -22.5t-22.5 -9.5t-22.5 9.5t-9.5 22.5v133q0 16 13 26l19 13q7 140 109 238t243 98q139 0 240.5 -95.5t110.5 -234.5l44 -15q21 -8 21 -30v-133q0 -13 -9.5 -22.5t-22.5 -9.5zM640 112v10q48 37 64 73q-19 -3 -88 -3
q-67 0 -76 1q-26 3 -43 25t-14 49q3 26 24 42.5t47 13.5q55 -5 106 -0.5t75 14.5q1 21 1 84q0 102 -58 160t-158 61h-20q-100 -2 -156.5 -61t-56.5 -161q0 -35 0.5 -57.5t6 -61.5t15 -67t29 -59.5t46.5 -52.5v-10q-100 -15 -163 -53t-63 -89q0 -13 9.5 -23.5t23.5 -10.5h628
q13 0 26 10.5t13 23.5q0 51 -60 89t-158 53z" />
    <glyph glyph-name="weixin" unicode="&#xe6df;" 
d="M897 -25l27 -90l-99 54q-73 -18 -109 -18q-129 0 -218.5 76.5t-89.5 185t89.5 185.5t218.5 77q81 0 151.5 -35t113.5 -96t43 -131q0 -113 -127 -208zM616 300q-13 0 -24.5 -11.5t-11.5 -25t11.5 -24.5t24.5 -11q20 0 33 11t13 25t-13 25t-33 11zM816 300q-14 0 -25 -11.5
t-11 -25t11 -24.5t25 -11q19 0 32 11t13 25t-13 25t-32 11zM385 178q0 -37 11 -75q-18 -2 -34 -2q-13 0 -25 1t-27 3.5t-22.5 3.5t-27 5t-25.5 6l-126 -64l36 109q-145 101 -145 243q0 85 49 155.5t132 111t181 40.5q134 0 238.5 -72t127.5 -181q-19 2 -35 2
q-129 0 -218.5 -83.5t-89.5 -202.5zM245 562q-22 0 -38.5 -13t-16.5 -32.5t16.5 -32t38.5 -12.5q20 0 32.5 12t12.5 32.5t-12.5 33t-32.5 12.5zM498 562q-21 0 -37.5 -13t-16.5 -32.5t16.5 -32t37.5 -12.5t33.5 12t12.5 32.5t-12.5 33t-33.5 12.5z" />
    <glyph glyph-name="attentionfill" unicode="&#xe616;" 
d="M992 384q0 9 -1 11q-1 6 -2 11q-1 1 -1 2q-1 3 -2 4q-66 145 -197 234.5t-277 89.5t-277 -89t-197 -234q-1 -3 -2 -5q0 -2 -1 -2q0 -2 -1 -8l-2 -11v-6q1 -7 1 -8q0 -3 1 -7v0l2 -6t2 -4q66 -145 197 -234.5t277 -89.5t277 89t196 233q2 3 3 7q0 1 1 1q0 2 0.5 4t1 3.5
t-0.5 1.5v0q2 8 2 13zM512 224q-66 0 -113 47t-47 113t47 113t113 47t113 -47t47 -113t-47 -113t-113 -47z" />
    <glyph glyph-name="attention" unicode="&#xe617;" 
d="M992 384q0 9 -1 11q-1 6 -2 11q-1 1 -1 2q-1 3 -2 4q-66 145 -197 234.5t-277 89.5t-277 -89t-197 -234q-1 -3 -2 -5q0 -2 -1 -2q0 -2 -1 -8l-2 -11v-6q1 -7 1 -8q0 -3 1 -7v0l2 -6t2 -4q66 -145 197 -234.5t277 -89.5t277 89t196 233q2 3 3 7q0 1 1 1q0 2 0.5 4t1 3.5
t-0.5 1.5v0q2 8 2 13zM927 382v-1v-1q-59 -128 -173.5 -206t-241.5 -78t-241 78t-174 206v2l-0.5 0.5l-0.5 0.5v1v1q0 1 1 2v1q59 128 173.5 206t241.5 78t241.5 -78t173.5 -206v-1v0q1 -3 1 -4zM512 544q-66 0 -113 -47t-47 -113t47 -113t113 -47t113 47t47 113t-47 113
t-113 47zM512 288q-40 0 -68 28t-28 68t28 68t68 28t68 -28t28 -68t-28 -68t-68 -28z" />
    <glyph glyph-name="edit" unicode="&#xe6aa;" 
d="M507 135l67 67l-87 87l-66 -67v-32h54v-55h32zM759 547q-9 9 -19 -1l-200 -200q-10 -9 -0.5 -18.5t18.5 0.5l200 200q10 10 1 19zM805 207v-108q0 -68 -48.5 -116.5t-116.5 -48.5h-475q-68 0 -116.5 48.5t-48.5 116.5v475q0 68 48.5 116.5t116.5 48.5h475q36 0 67 -14
q8 -4 10 -14q2 -9 -5 -16l-28 -28q-8 -8 -18 -5q-13 4 -26 4h-475q-38 0 -65 -27t-27 -65v-475q0 -38 27 -65t65 -27h475q38 0 64.5 27t26.5 65v72q0 7 6 12l36 37q9 9 20.5 4t11.5 -17v0zM750 629l164 -164l-384 -384h-164v164zM1003 554l-52 -53l-165 165l53 52
q16 16 39 16t39 -16l86 -87q16 -16 16 -38.5t-16 -38.5v0z" />
    <glyph glyph-name="thumbsodown" unicode="&#xe665;" 
d="M146 556q0 15 -10.5 26t-25.5 11t-26 -11t-11 -26t11 -26t26 -11t25.5 11t10.5 26zM805 227q0 20 -12.5 46t-30.5 27q8 10 14 27.5t6 31.5q0 39 -31 68q11 18 11 39t-10 42t-27 30q2 17 2 32q0 49 -28 72.5t-77 23.5h-73q-75 0 -196 -42q-3 -1 -16.5 -6t-20 -7t-20 -6.5
t-22 -6.5t-19 -3.5t-17.5 -1.5h-19v-366h19q9 0 20 -5t23 -15.5t22 -20.5t22.5 -25t20 -24.5t18 -23.5t13.5 -17q31 -39 44 -52q23 -25 33.5 -63t17.5 -71.5t22 -48.5q55 0 73 27t18 83q0 34 -27.5 91.5t-27.5 91.5h201q29 0 51.5 22t22.5 51v0zM878 226q0 -59 -43.5 -102
t-103.5 -43h-100q27 -57 27 -110q0 -68 -20 -106q-20 -40 -58 -58.5t-86 -18.5q-29 0 -52 21q-19 19 -30.5 47t-14.5 51.5t-10 48.5t-18 37q-27 28 -61 72q-58 75 -78 89h-157q-30 0 -51.5 21.5t-21.5 51.5v366q0 30 21.5 51.5t51.5 21.5h165q12 0 79 23q73 25 127 37.5
t114 12.5h64q80 0 129.5 -45t49.5 -124v-3q34 -44 34 -101q0 -13 -2 -25q22 -38 22 -82q0 -21 -5 -40q28 -42 28 -93v0z" />
    <glyph glyph-name="double-down" unicode="&#xe6ab;" 
d="M797 306.5q0 -7.5 -5 -13.5l-267 -266q-5 -6 -12.5 -6t-13.5 6l-266 266q-6 6 -6 13.5t6 12.5l28 29q6 6 13.5 6t13.5 -6l224 -225l225 225q5 6 12.5 6t13.5 -6l29 -29q5 -5 5 -12.5zM797 525.5q0 -7.5 -5 -12.5l-267 -267q-5 -5 -12.5 -5t-13.5 5l-266 267q-6 5 -6 12.5
t6 13.5l28 28q6 6 13.5 6t13.5 -6l224 -224l225 224q5 6 12.5 6t13.5 -6l29 -28q5 -6 5 -13.5z" />
    <glyph glyph-name="bianji" unicode="&#xe66e;" 
d="M763 29h-502q-24 0 -40 16.5t-16 39.5v503q0 23 16 39.5t40 16.5h279h37h19q8 0 13 -5.5t5 -13.5t-5 -13.5t-13 -5.5h-19h-37h-261q-15 0 -26 -10.5t-11 -26.5v-465q0 -16 11 -27t26 -11h466q15 0 26 11t11 27v298v33v4q0 8 5.5 13t13 5t13 -5t5.5 -13v-37v-317
q0 -23 -16 -39.5t-40 -16.5v0zM459 276q-5 -6 -13 -6t-13 5.5t-5 13.5t5 13l335 337q5 5 13 5t13.5 -5.5t5.5 -13t-6 -13.5l-335 -336v0zM459 276z" />
    <glyph glyph-name="shouji_f" unicode="&#xe605;" 
d="M876 170l-141 105q-42 28 -70 0l-42 -42q-88 66 -152 130q-57 57 -113 132l43 43q28 29 0 70l-106 141q-14 14 -35 14t-35 -14l-70 -70q-14 -14 -20 -29t-2.5 -36.5t7.5 -33.5t15 -42q10 -18 29.5 -49t78 -108t113.5 -132q124 -124 282 -216l7 -4q93 -47 141 0l70 70
q15 16 16 37t-16 34zM818 112l-44 -44q-9 -9 -35.5 -9.5t-38.5 5.5q-24 15 -61 39.5t-118 85.5t-120 104q-59 60 -119.5 141t-91.5 139q-8 16 -8.5 37.5t11.5 36.5l45 44q10 10 22 11t22 -11l68 -89q18 -27 0 -45l-57 -56q105 -170 336 -332l55 55q18 18 45 0l89 -67
q18 -15 0 -45z" />
    <glyph glyph-name="lock-o" unicode="&#xe6d6;" 
d="M805 -128h-586q-62 0 -106.5 42t-44.5 101v328q0 59 44.5 101t106.5 42h586q62 0 106.5 -42t44.5 -101v-328q0 -59 -44.5 -101t-106.5 -42zM219 418q-34 0 -58 -22t-24 -53v-328q0 -31 24 -53t58 -22h586q34 0 58 22t24 53v328q0 31 -24 53t-58 22h-586zM717 418
q-14 0 -24 10t-10 24v205q0 71 -50 121t-121 50t-121 -50t-50 -121v-205q0 -14 -10 -24t-24 -10t-24 10t-10 24v205q0 99 70 169t169 70t169 -70t70 -169v-205q0 -14 -10 -24t-24 -10z" />
    <glyph glyph-name="question" unicode="&#xe6ac;" 
d="M512 783q-101 0 -192.5 -39t-158 -105.5t-105.5 -158t-39 -192.5t39 -192.5t105.5 -158t158 -105.5t192.5 -39t192.5 39t158 105.5t105.5 158t39 192.5t-39 192.5t-105.5 158t-158 105.5t-192.5 39zM573 -22h-118v118h118v-118v0zM711 348q-23 -35 -95 -95
q-37 -30 -46 -49t-8 -68h-107v28q0 52 17 86q17 33 68 75q51 41 62 55q16 20 16 45q0 35 -27.5 59.5t-74.5 24.5q-44 0 -75 -26q-30 -25 -41 -78l-108 14q4 75 64 127q59 52 155 52q102 0 162 -53q59 -52 59 -123q0 -39 -21 -74z" />
    <glyph glyph-name="star" unicode="&#xe6cb;" 
d="M987 442q0 -12 -14 -27l-208 -202l49 -286q1 -4 1 -12q0 -12 -6 -20t-18 -8q-10 0 -22 7l-257 135l-257 -135q-12 -7 -22 -7q-12 0 -18 8t-6 20q0 4 1 12l49 286l-208 202q-14 15 -14 27q0 21 32 27l286 41l129 260q11 24 28 24t28 -24l129 -260l286 -41q32 -6 32 -27z
" />
    <glyph glyph-name="apple1" unicode="&#xe6ad;" 
d="M867 94q-26 -57 -52 -98q-37 -56 -73.5 -89t-81.5 -34v0q-29 0 -65 17q-36 16 -68 16q-33 0 -70 -16q-37 -17 -64 -17h-2q-45 1 -81.5 33.5t-70.5 83.5q-69 105 -81.5 222.5t36.5 193.5q33 50 81.5 79t100.5 29q36 0 89 -19q40 -14 61 -14q18 0 52 13q54 20 97 20
q45 0 89.5 -23t76.5 -64q7 -8 5 -18t-11 -14q-39 -22 -59.5 -59t-17.5 -81q3 -46 29 -81t68 -51q9 -3 12.5 -12t-0.5 -17zM715 252q-4 50 16.5 93.5t60.5 72.5q-54 53 -117 53q-35 0 -81 -18q-42 -16 -68 -16q-28 0 -75 17t-75 17q-41 0 -80 -24t-66 -65
q-24 -38 -30.5 -95.5t12.5 -131.5t63 -141q64 -97 117 -98l1 -21v21q18 0 47 13q45 20 86 20q43 0 87 -20q27 -12 46 -12q52 0 120 103q23 35 40 72q-45 23 -72.5 65.5t-31.5 94.5zM504 496h-2h-2q-17 0 -20 17q-6 34 5.5 71.5t37.5 70.5q25 29 62 49t73 23q8 0 14.5 -5
t8.5 -14q11 -74 -43 -143q-24 -32 -60.5 -50.5t-73.5 -18.5zM557 627q-35 -42 -36 -87q50 9 83 52q33 42 35 88q-50 -14 -82 -53z" />
    <glyph glyph-name="yl-0" unicode="&#xe6f8;" 
d="M540 866h-10l-347 -268h-70q-40 0 -69 -27q-29 -29 -29 -69v-301q0 -40 29 -68t69 -28h71l347 -234h9q39 0 67.5 28.5t28.5 67.5v803q0 39 -28.5 67.5t-67.5 28.5zM1008 143l-113 229l108 219q6 11 2 22.5t-15 17t-22.5 1.5t-16.5 -15l-89 -179l-88 179q-6 11 -17.5 15
t-22.5 -1.5t-14.5 -17t1.5 -22.5l108 -219l-113 -229q-5 -11 -1 -22.5t15 -16.5q6 -3 13 -3q18 0 26 16l93 189l93 -189q9 -16 27 -16q7 0 13 3q11 5 14.5 16.5t-1.5 22.5z" />
    <glyph glyph-name="windows" unicode="&#xe6af;" 
d="M181 389q57 23 103.5 31.5t83 1.5t62 -18t55.5 -32l-80 -273q-31 21 -55 32.5t-61 19t-83.5 -0.5t-103.5 -32l78 270zM526 346q31 -20 55 -31.5t60 -19t82.5 -1t104.5 26.5l-76 -263q-57 -24 -103.5 -32t-83.5 -1t-61.5 18.5t-55.5 32.5zM498 422q-38 26 -72.5 40
t-77.5 14q-62 1 -155 -38l79 272q57 24 103.5 32t83.5 1t62 -18.5t55 -32.5zM922 646q-57 -24 -103.5 -32t-83.5 -1t-62 18.5t-55 32.5l-79 -272q31 -21 57 -32.5t63 -19t83.5 1t101.5 33.5z" />
    <glyph glyph-name="android1" unicode="&#xe618;" 
d="M616 719l42 61q3 5 -1 8l-1 1q-5 3 -8 -2l-44 -63q-44 19 -94 19q-46 0 -89 -17l-41 60q-4 5 -8 2l-1 -1q-5 -3 -2 -8l40 -58q-48 -23 -79.5 -64.5t-38.5 -92.5h439q-7 50 -37.5 90.5t-76.5 64.5zM418 630q-9 0 -15.5 6.5t-6.5 15.5t6.5 15.5t15.5 6.5t15.5 -6.5
t6.5 -15.5t-6.5 -15.5t-15.5 -6.5zM607 630q-9 0 -15.5 6.5t-6.5 15.5t6.5 15.5t15.5 6.5t15.5 -6.5t6.5 -15.5t-6.5 -15.5t-15.5 -6.5zM261 476v-179q0 -23 -13 -39.5t-31 -16.5h-9q-18 0 -31 16.5t-13 39.5v179q0 24 13 40t31 16h9q18 0 31 -16t13 -40zM860 475v-179
q0 -23 -13 -39.5t-31 -16.5h-9q-18 0 -31 16.5t-13 39.5v179q0 23 13 39.5t31 16.5h9q18 0 31 -16t13 -40zM733 535v-354q0 -18 -13 -31.5t-32 -13.5h-36v-102q0 -23 -13 -39.5t-31 -16.5h-10q-18 0 -30.5 16.5t-12.5 39.5v102h-82v-101q0 -23 -13 -39.5t-31 -16.5h-9
q-18 0 -31 16.5t-13 39.5v101h-40q-18 0 -31 13.5t-13 31.5v354h441z" />
    <glyph glyph-name="windows8" unicode="&#xe6b0;" 
d="M118 638l327 49v-275l-327 -7v233zM498 694l408 60l-3 -333l-405 -9v282zM118 130l327 -49v278h-327v-229zM498 71l405 -57v345h-405v-288z" />
    <glyph glyph-name="jiadianchatou" unicode="&#xe70f;" 
d="M228 526v85q0 8 7 8h566q8 0 8 -8v-85q0 -12 8 -20.5t20 -8.5t20.5 8.5t8.5 20.5v85q0 27 -19 45.5t-46 18.5h-566q-26 0 -45 -18.5t-19 -45.5v-85q0 -12 8 -20.5t20 -8.5t20.5 8.5t8.5 20.5v0zM809 550q0 -120 -85 -205t-205.5 -85t-205.5 85t-85 205q0 12 -8.5 20.5
t-20.5 8.5t-20 -8.5t-8 -20.5q0 -94 46.5 -174t126.5 -126.5t174.5 -46.5t174.5 46.5t126.5 126.5t46.5 174q0 12 -8.5 20.5t-20.5 8.5t-20 -8.5t-8 -20.5v0zM308 830v-157q0 -12 8.5 -20t20.5 -8t20 8t8 20v157q0 11 -8 19.5t-20 8.5t-20.5 -8.5t-8.5 -19.5v0zM670 832
v-157q0 -11 8 -19.5t20 -8.5t20.5 8.5t8.5 19.5v157q0 12 -8.5 20t-20.5 8t-20 -8t-8 -20v0zM489 231v-274q0 -12 8.5 -20t20 -8t20 8t8.5 20v274q0 12 -8.5 20.5t-20 8.5t-20 -8.5t-8.5 -20.5v0z" />
    <glyph glyph-name="add" unicode="&#xe6e3;" 
d="M990 659v-718l-1 -5q-11 -62 -64 -95q-22 -14 -54 -19h-718l-2 1q-59 9 -94 58q-17 24 -23 60v719q2 10 2 11q13 57 63 88q22 14 54 19h718l3 -1q58 -9 93 -58q17 -25 23 -60zM512 -109h354q21 0 35 10q20 16 20 46v521v187q0 30 -22 45q-13 9 -35 9h-705h-5
q-31 -1 -46 -28q-5 -11 -5 -29v-653v-55q0 -25 16 -40q15 -13 39 -13h354zM547 455v-111q0 -6 1.5 -7.5t7.5 -1.5h216h3.5h4.5q6 0 6 -6v-58q0 -6 -6 -6h-4h-4h-99h-116q-7 0 -8.5 -1.5t-1.5 -8.5v-111v-105v-8q0 -5 -5 -5h-60q-5 0 -5 6v3v5v103.5v110.5q0 8 -1.5 9.5
t-9.5 1.5h-108.5h-105.5q-11 0 -12.5 1t-1.5 13v45q0 8 1.5 9.5t9.5 1.5h214q11 0 12.5 1.5t1.5 12.5v214q0 8 1.5 9.5t8.5 1.5h49q8 0 9.5 -1.5t1.5 -10.5v-107z" />
    <glyph glyph-name="fire" unicode="&#xe619;" 
d="M344 -64q-21 45 -28.5 83t-1.5 70.5t17 56.5t31 53q22 32 37.5 68.5t20.5 56.5l4 21q2 -2 4.5 -6t9 -17.5t9 -27.5t5 -36.5t-3.5 -44.5q46 53 63.5 129t7.5 120q58 -41 99 -104t60 -134t13 -147t-39 -141q98 56 156 124t75 132t10.5 131t-30.5 122t-55.5 103t-57.5 76.5
t-42 40.5q11 -24 14.5 -54t-4 -60t-27.5 -48q-20 76 -53 138t-64.5 96t-63 57t-48 30.5t-18.5 7.5q25 -170 -168 -410q-3 50 -9.5 81t-26.5 68q-3 -44 -24.5 -93.5t-46.5 -101.5t-34 -93q-21 -107 25.5 -188t183.5 -159v0zM344 -64z" />
    <glyph glyph-name="shouji_1" unicode="&#xe606;" horiz-adv-x="1025" 
d="M513 896q-104 0 -199 -40.5t-163.5 -109t-109 -163.5t-40.5 -199t40.5 -198.5t109 -163t163.5 -109.5t199 -41t198.5 41t163 109.5t109 163t40.5 198.5t-40.5 199t-109 163.5t-163 109t-198.5 40.5zM734 139q0 -30 -22.5 -50.5t-54.5 -20.5h-289q-31 0 -54 20.5t-23 50.5
v491q0 29 23 50t54 21h289q32 0 54.5 -21t22.5 -50v-491zM513 145q-11 0 -19.5 -7t-8.5 -17.5t8.5 -18t19.5 -7.5t19 7.5t8 18t-8 17.5t-19 7zM348 624h329v-453h-329v453zM471 649h83q7 0 7 6.5t-7 6.5h-83q-7 0 -7 -6.5t7 -6.5z" />
    <glyph glyph-name="back" unicode="&#xe6b1;" 
d="M748 457h-287v141q0 26 -16 35t-39 -6l-278 -180q-22 -15 -22 -35.5t22 -34.5l276 -179q23 -13 40 -3t17 32v122h206q24 0 43 -8t30.5 -20t20 -28.5t12.5 -29.5t6 -28t2 -20v-8q-1 0 0 -8.5t-1.5 -23t-5 -31.5t-11.5 -34t-20.5 -31t-31 -23t-44.5 -9h-425q-2 0 -5.5 -1
t-12 -4.5t-15 -9t-12 -16.5t-5.5 -26q0 -45 44 -53h6h506q27 0 50.5 9t39.5 25t29 36.5t21.5 43t14.5 45.5t9 43.5t4.5 36t1.5 25.5v9q0 5 -0.5 14t-4 34.5t-9 49t-18.5 52t-30 49t-45 34.5t-63 14z" />
    <glyph glyph-name="gouwuche1" unicode="&#xe607;" 
d="M995 662.5q-11 14.5 -29 14.5h-767l-32 153q-3 13 -13 21t-23 8h-94q-16 0 -26.5 -10.5t-10.5 -25.5t10.5 -26t26.5 -11h64l140 -666q2 -12 12.5 -20.5t23.5 -8.5h550q16 0 26.5 11t10.5 26t-10.5 26t-26.5 11h-521l-23 109h595q12 0 22 7.5t13 19.5l88 330q5 17 -6 31.5
zM850 347h-582l-54 256h704zM347.5 55q-37.5 0 -64.5 -27t-27 -64.5t27 -64.5t64.5 -27t64.5 27t27 64.5t-27 64.5t-64.5 27zM347.5 -73q-15.5 0 -26 10.5t-10.5 26t10.5 26t26 10.5t26 -10.5t10.5 -26t-10.5 -26t-26 -10.5zM750 55q-38 0 -65 -27t-27 -64.5t27 -64.5
t65 -27t64.5 27t26.5 64.5t-26.5 64.5t-64.5 27zM750 -73q-15 0 -26 10.5t-11 26t11 26t26 10.5t25.5 -10.5t10.5 -26t-10.5 -26t-25.5 -10.5z" />
    <glyph glyph-name="bianji-o" unicode="&#xe66f;" 
d="M62 717v-733q5 -6 8 -13.5t7 -13.5q6 -5 14 -8t14 -8h667q6 5 12.5 8.5t11 7.5t10.5 12q5 8 7.5 36t2.5 52t-0.5 59t-0.5 39v256q-7 -3 -12 -7.5t-10.5 -11t-8.5 -9.5q-15 -14 -19.5 -18t-8 -16t-2.5 -19.5t2 -36.5t1 -58v-235v0l-18 -3q-23 0 -189 -1t-293 -1t-140 2
q-2 15 -2 153t1 316t1 199v34q0 4 1 4l2 2h373q23 0 61 46q3 3 6 4q1 0 2 3q0 1 1 3h-407q-50 0 -61 -4.5t-27 -29.5q-4 -6 -6 -10v0zM363 247q2 14 7.5 32t12.5 41t10 32q1 6 2.5 14t2 10.5t3 7t5.5 7.5l8 8l301 306q8 8 25.5 26t26.5 27t24 19.5t26 11.5t26 -3.5t29 -18.5
q13 -13 19.5 -24t5.5 -23t-3.5 -21t-13.5 -22.5t-18.5 -21.5t-24.5 -24.5t-25 -24.5l-270 -269q-9 -8 -19 -19.5t-13 -14.5t-10.5 -8t-15 -7.5t-21.5 -6.5q-66 -27 -100 -34v0zM954 702v34q-3 6 -7.5 20t-7.5 20q-11 18 -25.5 31.5t-24 19t-23.5 12t-18 8.5h-39
q-5 -2 -23 -9.5t-29 -15.5q-19 -14 -334 -334q-2 -2 -22 -21t-34 -34t-17 -22q-2 -9 -22 -78.5t-29 -94.5q-1 -1 -3 -8t-3 -10t-2.5 -9t-1.5 -9.5t0.5 -8t3 -8t6.5 -6.5q16 -16 109 25q86 19 112 37l261 257q6 6 18.5 20t18.5 20q17 15 59 56.5t53 54.5q7 13 14 30t10 23v0z
M757 0h-637v705l-2 -2q-1 0 -1 -4v-34q0 -21 -1 -199t-1 -316t2 -153q13 -2 140 -2t293 1t189 1l18 3v0zM62 -59h43q-6 5 -14 8t-14 8q-4 6 -7 13.5t-8 13.5v-43z" />
    <glyph glyph-name="chongzhi" unicode="&#xe6ed;" 
d="M509 -210q-99 0 -176 25q-78 26 -131 67q-58 44 -87 92q-32 54 -42 103q-12 52 -4 111q8 51 31 97q24 49 54 84q29 33 70 66q12 9 31.5 25t23.5 19q29 27 39 38l2 1l1 1l1 1l1 1l1 1l1 1l1 1l1 1l1 2l1 1l1 1l1 1l2 1l1 1l1 1l1 2l1 1l1 1l1 1l1 1l1 1l1 1l1 1
q0 16 -1 26q0 17 -2 22q-5 8 -10 15l-15 21q-7 8 -21 22q-17 13 -25 18q-24 15 -35 43q-13 40 23 65h1q20 11 39 8q5 -1 14 -2.5t14 -2.5q13 -3 24 -7h3h2l8 4q11 11 34 24q26 12 55 10q30 -6 46 -19l3 -2q3 -3 5 -3q1 -1 2.5 -2t2.5 -1l4 3l1 2q15 12 38 22q24 9 58 -4
q19 -5 29 -15q2 -2 6.5 -5t6.5 -5t9 -5h5q8 0 8 1q3 1 9 3.5t8 3.5q14 4 23 5q13 3 32 -3h2q22 -8 34 -27q10 -19 5 -38q-2 -13 -14 -30q-12 -16 -25 -23q-16 -8 -26 -18q-3 -4 -11 -13t-11 -13q-2 -2 -6 -7.5t-6 -7.5t-4.5 -6t-3.5 -6v-20v-28q2 -2 6 -6.5t8 -8.5t8 -7v0
q8 -8 42 -39q47 -37 58 -46v0q27 -20 61 -54q32 -32 58 -77t34 -102q10 -54 -3 -126q-13 -60 -46 -111q-37 -53 -92 -90q-52 -35 -133 -60q-73 -30 -173 -30zM364 471q-26 -26 -43 -41q-25 -23 -56 -46q-35 -27 -61 -58q-26 -29 -46 -68q-18 -35 -26 -80q-7 -39 4 -87
q7 -39 34 -82q26 -42 71 -75q52 -37 113 -56q64 -22 155 -22q83 0 153 19q65 17 114 51q49 32 73 71q27 39 38 87q10 60 3 104q-8 48 -27 82q-21 36 -48 63q-29 29 -54 49q-32 22 -62 50q-34 30 -44 40l-1 1l-1 2l-1 1l-1 1l-1 1l-1 1l-1 1l-1 1l-1 1l-2 1l-1 1l-1 1l-1 1
l-1 1l-1 1l-1 2l-1 1l-1 1l-1 1l-1 1l-1 1l-1 1l-1 1l-1 1l-2 2h-237q-17 -21 -27 -29zM405 563h204v3q0 39 7 51q10 14 15 22q2 3 7 9t7 8q17 21 25 29q11 13 34 27q-1 0 -3.5 -1t-4.5 -2q-13 -5 -32 -5q-21 0 -35 7q-6 3 -20 13q-5 4 -14 12q-1 2 -6 4h-2q-5 1 -15 1
q-10 -3 -19 -10q-15 -13 -24 -17q-7 -7 -20 -7h-7l-7 4q-2 1 -6 2.5t-6.5 3t-4.5 2.5t-6 3.5t-6 3.5q-5 3 -14 12l-1 0.5t-3.5 1.5t-5.5 1q-10 0 -13 -1q-22 -14 -23 -14q-13 -13 -40 -19q-20 -2 -36 2q-3 1 -9 2.5t-8 2.5q20 -15 22 -17q19 -16 32 -34v0q2 -3 7 -8.5
t7 -8.5t8 -11t9 -11q8 -12 8 -53q-1 -5 -1 -8zM503 -23q-10 0 -17.5 7.5t-7.5 18.5v250q0 10 7.5 17.5t18 7.5t18 -7.5t7.5 -17.5v-250q-1 -11 -8.5 -18.5t-17.5 -7.5v0zM604 178h-201q-10 0 -17.5 7.5t-7.5 18t7.5 18t17.5 7.5h201q10 0 17.5 -7.5t7.5 -18.5q-1 -11 -8 -18
t-17 -7v0zM503 227q-12 0 -17 7q-7 8 -7 18t7 18l101 100q8 8 18 8t17.5 -7.5t7.5 -18t-7 -17.5l-102 -99q-9 -9 -18 -9v0zM503 227q-12 0 -17 7l-102 102q-7 8 -7 18t7.5 18t17.5 8t18 -8l101 -100q7 -8 7 -18.5t-7 -17.5q-9 -9 -18 -9v0zM604 77h-201q-10 0 -17.5 8
t-7.5 18t7.5 18t17.5 8h201q10 0 17.5 -8t7.5 -18q-1 -12 -8 -19t-17 -7v0z" />
    <glyph glyph-name="xiazai" unicode="&#xe708;" 
d="M478 79q11 -10 26 -10t25 10l335 329q11 11 11.5 26.5t-11.5 25.5q-17 13 -34.5 13t-27.5 -7l-9 -6l-267 -262q-9 -9 -22.5 -9t-22.5 9l-248 259q-3 3 -9 7.5t-24.5 5.5t-37.5 -13q-11 -10 -11 -25.5t11 -26.5zM511.5 290q20.5 0 34.5 14.5t14 34.5v365q0 20 -14 34.5
t-34.5 14.5t-35 -14.5t-14.5 -34.5v-365q0 -20 14.5 -34.5t35 -14.5zM1023 95q0 18 -13 31t-31 13t-31 -13t-13 -31v-136h-847v136q0 18 -13 31t-31 13t-31 -13t-13 -31v-180v0q0 -18 13 -31v0q1 -2 5.5 -3t5.5 -2q15 -8 20 -8v0h935v0q18 0 31 13t13 31v0v180z" />
    <glyph glyph-name="quanguorexian" unicode="&#xe670;" 
d="M738 344l-64 84v67l-48 10v-55h-237v57l-50 -11v-65l-66 -87l-98 -265v-139h654v143zM501.5 89q-60.5 0 -103.5 43t-43 103.5t43 103.5t103.5 43t103.5 -43t43 -103.5t-43 -103.5t-103.5 -43zM760 398q1 -22 8 -38q3 -5 7.5 -10t8.5 -6l3 -2h184q12 5 22 20q3 6 4 15
t0 15l-1 6h-236v0zM20 398q1 -22 8 -38q3 -5 8 -10t8 -6.5l3 -1.5h185q12 5 21 20q4 6 4.5 15t0.5 15l-1 6h-237v0zM20 414q0 4 -0.5 11t1.5 27.5t6.5 39t17.5 41.5t31 39q26 22 69 37t73 19l30 3q15 1 40.5 2.5t94 4t125.5 2.5q56 0 118 -2.5t96 -4.5l34 -3q5 0 14 -1
t34 -5.5t47.5 -11t49 -19.5t44.5 -29q25 -22 37.5 -59t12.5 -63v-26h-241q-1 5 -4 12.5t-14.5 24.5t-26.5 26q-16 10 -39.5 16t-39.5 7l-16 1l-114 2l-108 -1q-56 -4 -91 -27q-13 -9 -23 -24.5t-14 -25.5l-3 -11z" />
    <glyph glyph-name="question1" unicode="&#xe6b2;" 
d="M512 -212q-138 0 -256 69t-187 187t-69 256t69 256t187 187t256 69t256 -69t187 -187t69 -256t-69 -256t-187 -187t-256 -69zM512 727q-115 0 -213.5 -57.5t-156 -156t-57.5 -213.5t57.5 -213.5t156 -156t213.5 -57.5t213.5 57.5t156 156t57.5 213.5t-57.5 213.5
t-156 156t-213.5 57.5zM512 129q-19 0 -31 12t-12 31v30q0 47 23.5 86.5t62.5 62.5q25 13 37 38.5t5 51.5q-3 25 -22.5 45t-45.5 23q-42 7 -72 -17q-14 -10 -22 -27.5t-8 -36.5t-12 -31t-31 -12t-31 12t-12 31q0 79 60 132q59 52 141 39q51 -10 89 -48t47 -89
q10 -54 -13.5 -104t-71.5 -75q-38 -19 -38 -77v-34q0 -19 -12 -31t-31 -12zM512 44zM469 44q0 18 12.5 30.5t30.5 12.5t30.5 -12.5t12.5 -30.5t-12.5 -30.5t-30.5 -12.5t-30.5 12.5t-12.5 30.5zM512 -20q-26 0 -45 19t-19 45t19 45t45 19t45 -19t19 -45t-19 -45t-45 -19z
M512 65q-10 0 -15.5 -5.5t-5.5 -15.5t5.5 -15.5t15.5 -5.5t15.5 5.5t5.5 15.5t-5.5 15.5t-15.5 5.5z" />
    <glyph glyph-name="dfdf05" unicode="&#xe713;" 
d="M905 97q-1 29 -8 67q-8 49 -20 69q-3 11 -6 47q-2 25 -4 82q-2 40 -3 54q-1 11 -2 18q-4 25 -23 31q-6 2 -16 2h-23q-32 -1 -50 -1q-34 0 -54 2q-29 4 -49 21q-13 10 -38.5 19.5t-44.5 9.5q-13 0 -24 -6q-18 -10 -23 -56q-2 -18 -5 -65q-4 -73 -8 -83q-14 -31 -49 -59
q-24 -20 -97 -47q-66 -25 -89 -27q-17 -2 -42 -2h-26q-14 1 -20 1q-22 0 -32 -3q-29 -10 -39 -48l-1 -1v-2l-3 -18l-5 -12v-1v-1q-14 -43 0 -65q7 -11 18 -16q57 -29 212 -41q96 -7 210 -7h28q16 -2 43 -2q66 0 169 9q41 4 70 7q14 2 22 4q6 1 9 2q18 5 23 21q4 11 0 97z
M474 225q41 33 59 71q4 10 7 56.5t6.5 88t8.5 44.5q4 2 9 2q14 0 34.5 -7.5t28.5 -14.5q27 -22 65 -27q22 -3 58 -3q18 0 43 1t30 1t6 -1q3 -1 5.5 -48.5t6 -101.5t9.5 -66q-128 -10 -243 -63q-61 -28 -117 -12l-34 68q11 6 18 12zM139 115q6 22 19 26q5 2 23 2q6 0 21 -0.5
t25 -0.5q26 0 44.5 2t68 19t89.5 36l39 -78l5 -3q23 -9 58 -9q45 0 89 20q115 53 241 61q9 -37 12 -83q-25 2 -62 2h-57q-37 -1 -86 -17q-27 -10 -46 -15t-64.5 -10.5t-104.5 -4.5q-92 0 -172 11t-104 17.5t-36 11.5q-2 0 -4 1zM876 9q-1 -2 -47 -7t-110 -9.5t-107 -4.5
q-27 0 -41 2h-30q-325 0 -410 45l-2.5 2.5t-4 10.5t3.5 26q1 -1 2 -1q14 -5 38.5 -12t107 -18t177.5 -12h9q58 0 104 5.5t65 11t48 15.5q44 15 75 15h57q36 0 64 -2q2 -62 1 -67zM611 373zM580 373q0 13 9 22t22 9t22.5 -9t9.5 -22t-9.5 -22.5t-22.5 -9.5t-22 9.5t-9 22.5z
M587 268zM555 268q0 13 9.5 22t22.5 9t22.5 -9t9.5 -22t-9.5 -22.5t-22.5 -9.5t-22.5 9.5t-9.5 22.5z" />
    <glyph glyph-name="changyongxiangmu" unicode="&#xe671;" 
d="M714 9h9v-21h-9v21zM323 794h-227q-30 0 -51 -21.5t-21 -51.5v-226q0 -66 46 -112t111 -46h299v299q0 65 -46 111.5t-111 46.5zM708 794q-66 0 -112 -46.5t-46 -111.5v-226q0 -30 21.5 -51.5t51.5 -21.5h226q65 0 111.5 46t46.5 112v299h-299zM966 495q0 -49 -34.5 -83
t-82.5 -34h-226q-13 0 -22.5 9.5t-9.5 22.5v226q0 48 34 82.5t83 34.5h258v-258zM24 114v-226q0 -30 21 -51.5t51 -21.5h227q65 0 111 46t46 112v299h-299q-65 0 -111 -46t-46 -112zM849 272h-299v-299q0 -66 46 -112t112 -46h226q30 0 51.5 21.5t21.5 51.5v226
q0 66 -46.5 112t-111.5 46zM714 9h9v-21h-9v21zM714 9h9v-21h-9v21z" />
    <glyph glyph-name="bars" unicode="&#xe6b3;" 
d="M172 566h682v-64h-682v64zM172 331h682v-64h-682v64zM172 96h682v-64h-682v64z" />
    <glyph glyph-name="keyboard" unicode="&#xe693;" 
d="M896 -7h-819q-32 0 -54.5 22.5t-22.5 54.5v409q0 32 22.5 54.5t54.5 22.5h819q32 0 54.5 -22.5t22.5 -54.5v-409q0 -32 -22.5 -54.5t-54.5 -22.5zM77 505q-11 0 -18.5 -7.5t-7.5 -18.5v-409q0 -11 7.5 -18.5t18.5 -7.5h819q11 0 18.5 7.5t7.5 18.5v409q0 11 -7.5 18.5
t-18.5 7.5h-819zM179 402h-51q-11 0 -18.5 7.5t-7.5 18.5t7.5 18.5t18.5 7.5h51q11 0 18.5 -7.5t7.5 -18.5t-7.5 -18.5t-18.5 -7.5zM845 402h-51q-11 0 -18.5 7.5t-7.5 18.5t7.5 18.5t18.5 7.5h51q10 0 17.5 -7.5t7.5 -18.5t-7.5 -18.5t-17.5 -7.5zM230 300h-102
q-11 0 -18.5 7.5t-7.5 18t7.5 18t18.5 7.5h102q11 0 18.5 -7.5t7.5 -18t-7.5 -18t-18.5 -7.5zM179 95h-51q-11 0 -18.5 7.5t-7.5 18t7.5 18t18.5 7.5h51q11 0 18.5 -7.5t7.5 -18t-7.5 -18t-18.5 -7.5zM589 95h-307q-11 0 -18.5 7.5t-7.5 18t7.5 18t18.5 7.5h307
q10 0 17.5 -7.5t7.5 -18t-7.5 -18t-17.5 -7.5zM742 95h-51q-10 0 -17.5 7.5t-7.5 18t7.5 18t17.5 7.5h51q11 0 18.5 -7.5t7.5 -18t-7.5 -18t-18.5 -7.5zM845 198h-154q-10 0 -17.5 7.5t-7.5 18t7.5 18t17.5 7.5h128v77q0 10 7.5 17.5t18 7.5t18 -7.5t7.5 -17.5v-103
q0 -10 -7.5 -17.5t-17.5 -7.5zM282 198h-154q-11 0 -18.5 7.5t-7.5 18t7.5 18t18.5 7.5h154q10 0 17.5 -7.5t7.5 -18t-7.5 -18t-17.5 -7.5zM307 428q0 -11 -7.5 -18.5t-18 -7.5t-18 7.5t-7.5 18.5t7.5 18.5t18 7.5t18 -7.5t7.5 -18.5zM410 428q0 -11 -7.5 -18.5t-18.5 -7.5
t-18.5 7.5t-7.5 18.5t7.5 18.5t18.5 7.5t18.5 -7.5t7.5 -18.5zM512 428q0 -11 -7.5 -18.5t-18 -7.5t-18 7.5t-7.5 18.5t7.5 18.5t18 7.5t18 -7.5t7.5 -18.5zM614 428q0 -11 -7.5 -18.5t-18 -7.5t-18 7.5t-7.5 18.5t7.5 18.5t18 7.5t18 -7.5t7.5 -18.5zM717 428
q0 -11 -7.5 -18.5t-18 -7.5t-18 7.5t-7.5 18.5t7.5 18.5t18 7.5t18 -7.5t7.5 -18.5zM358 325.5q0 -10.5 -7.5 -18t-18 -7.5t-18 7.5t-7.5 18t7.5 18t18 7.5t18 -7.5t7.5 -18zM461 325.5q0 -10.5 -7.5 -18t-18 -7.5t-18 7.5t-7.5 18t7.5 18t18 7.5t18 -7.5t7.5 -18z
M563 325.5q0 -10.5 -7.5 -18t-18 -7.5t-18 7.5t-7.5 18t7.5 18t18 7.5t18 -7.5t7.5 -18zM666 325.5q0 -10.5 -7.5 -18t-18.5 -7.5t-18.5 7.5t-7.5 18t7.5 18t18.5 7.5t18.5 -7.5t7.5 -18zM768 325.5q0 -10.5 -7.5 -18t-18 -7.5t-18 7.5t-7.5 18t7.5 18t18 7.5t18 -7.5
t7.5 -18zM410 223.5q0 -10.5 -7.5 -18t-18.5 -7.5t-18.5 7.5t-7.5 18t7.5 18t18.5 7.5t18.5 -7.5t7.5 -18zM512 223.5q0 -10.5 -7.5 -18t-18 -7.5t-18 7.5t-7.5 18t7.5 18t18 7.5t18 -7.5t7.5 -18zM614 223.5q0 -10.5 -7.5 -18t-18 -7.5t-18 7.5t-7.5 18t7.5 18t18 7.5
t18 -7.5t7.5 -18z" />
    <glyph glyph-name="icon12" unicode="&#xe6f0;" 
d="M800 -148h-578h-9q-3 1 -8 2l-8 2q-3 1 -7 3q-4 1 -7 3q-4 2 -7 5q-3 2 -6 5q-3 2 -6 5q-2 2 -5 6l-4 6t-4 7q-2 3 -4 7q-1 5 -2.5 8.5t-2 8t-1.5 8.5v8v613v8q1 4 2 9q0 4 2 8q1 3 2 7q2 4 3 7q3 5 5 8l4 6q3 3 5 6q4 3 6.5 5.5t5.5 4.5q3 3 6.5 4.5t7.5 3.5t7 3l8 2
t8.5 1.5t8.5 0.5h54q9 0 15 -6.5t6 -15t-6 -15t-15 -6.5h-54h-4t-4 -0.5t-3 -0.5l-4 -2q-1 0 -3 -1q-2 -2 -3 -2l-3 -3l-3 -3q-1 -1 -3 -2q0 -1 -2 -3q0 -1 -2 -4l-2 -4q0 -1 -1 -3q0 -2 -1 -4v-5v-4v-613v-4t0.5 -4.5t0.5 -3.5q1 -2 2 -5q1 -2 1 -3q1 -2 2 -3l2 -4
q2 -1 3 -3q2 -1 3 -2q1 -2 2.5 -3l3 -2t3.5 -1.5t3 -1.5q2 0 4 -1q2 0 3.5 -0.5t4.5 -0.5h578q2 0 4 1q2 0 4 0.5t3 0.5q2 1 4 1q1 1 3 2t3 2l3 3q2 1 3 2l3 3q1 2 1 3q2 2 3 4t1 3q1 2 1.5 4t1.5 4v5v4v613v4t-0.5 4.5t-1 4.5t-1 3.5t-1.5 3.5t-2 3q-2 2 -3 4t-2 3
q-2 1 -3 2l-2.5 2.5t-3.5 2.5q-2 0 -3.5 1t-3.5 2q-2 0 -3 1h-4h-4h-54q-9 0 -15 6.5t-6 15t6 15t15 6.5h54q5 0 9 -0.5t8 -1.5q3 -1 7 -2t8 -3t7 -3q4 -3 7 -5t6 -5q3 -2 6 -5q2 -3 5 -6q3 -4 5 -7q1 -2 3 -7q2 -3 4 -7q1 -3 2 -7q2 -5 2 -9l2 -8v-8v-613q0 -5 -0.5 -9
t-1.5 -8q0 -3 -2 -8l-2 -8q-1 -2 -3.5 -6.5t-4.5 -7.5q-1 -3 -4 -6q-3 -4 -5.5 -6.5t-5.5 -4.5q-3 -4 -6 -5q-3 -3 -6.5 -5t-7.5 -3q-4 -2 -8 -3q-3 -1 -7 -2q-5 -1 -8 -2h-9zM376 527q-23 0 -38 18q-13 18 -8 39l2 8q7 26 9 36q3 15 19 28t33 13h25h10v0q7 28 10 38
q4 15 19.5 27t35.5 12h22h14q20 0 35.5 -12t19.5 -27q7 -27 10 -38h10h19q24 0 39.5 -13t18.5 -28l11 -44q5 -22 -8 -39q-15 -18 -37 -18h-22h-248h-1zM418 626h-25q-2 0 -6 -3t-5 -6q-1 -6 -9 -35l-2 -8q0 -2 1 -3q1 -2 4 -2v-21v21q12 1 249 0h22q2 0 3 2q1 1 1 3l-11 44
v0v0q-4 8 -17 8h-19h-15q-12 0 -22 7.5t-13 20.5q-3 11 -11 42q-3 7 -14 7h-14h-22q-11 0 -14 -8q-2 -4 -10 -36l-1 -5q-3 -13 -13 -20.5t-23 -7.5h-14zM533 -12q0 -9 -6.5 -15.5t-15.5 -6.5t-16 6.5t-7 15.5v93h-100q-6 0 -10.5 4.5t-4.5 11t4.5 11t10.5 4.5h100v64h-100
q-6 0 -10.5 4.5t-4.5 11.5q0 5 4.5 9.5t10.5 4.5h99l-132 191q-5 8 -3 17t9 14q8 5 17 3.5t14 -8.5l115 -167q1 -3 3.5 -3t3.5 3l116 167q5 7 14 8.5t16.5 -3.5t9.5 -14t-3 -17l-132 -191h99q6 0 10 -4t4 -10q0 -7 -4 -11.5t-10 -4.5h-101v-64h101q6 0 10 -4.5t4 -11t-4 -11
t-10 -4.5h-101v-93v0z" />
    <glyph glyph-name="tupian-o" unicode="&#xe6e1;" 
d="M969 835h-907q-27 0 -46 -19t-19 -46v-745q0 -27 19 -46t46 -19h907q27 0 46 19t19 46v745q0 27 -19 46t-46 19zM969 25h-907v191l260 252l268 -268q9 -10 21.5 -9.5t23.5 8.5l118 107l214 -219l2 -2v-60zM969 177l-190 195q-9 9 -21 9.5t-22 -6.5l-122 -107l-268 266
q-9 11 -23 12q-14 0 -24 -9l-237 -231v464h907v-593zM742.5 511q26.5 0 45.5 19t19 45.5t-19 45.5t-45.5 19t-45.5 -19t-19 -45.5t19 -45.5t45.5 -19z" />
    <glyph glyph-name="iconchangyongdizhi" unicode="&#xe672;" 
d="M514.5 683q-113.5 0 -194 -80.5t-80.5 -193.5q0 -43 28 -105.5t68.5 -122t81 -112t68.5 -86t28 -32.5q12 13 30.5 34.5t65.5 82t83.5 115.5t66 119t29.5 107q0 113 -80.5 193.5t-194 80.5zM275 405q0 101 70 172t169 71t169.5 -71t70.5 -172q0 -37 -25 -92.5t-60 -108
t-70 -99.5t-60 -76l-25 -29q-9 11 -25.5 30t-57.5 73t-72.5 102.5t-57.5 105.5t-26 94zM514.5 546q-47.5 0 -81 -33.5t-33.5 -81t33.5 -81t81 -33.5t81 33.5t33.5 81t-33.5 81t-81 33.5zM514 345q-35 0 -59.5 25t-24.5 60t24.5 59.5t59.5 24.5t60 -24.5t25 -59.5t-25 -60
t-60 -25z" />
    <glyph glyph-name="shuffle" unicode="&#xe6b4;" 
d="M768 192h-101l-160 160l160 160h101v-160l224 224l-224 224v-160h-128q-27 0 -45 -19l-179 -178l-179 178q-18 19 -45 19h-192v-128h165l160 -160l-160 -160h-165v-128h192q27 0 45 19l179 178l179 -178q18 -19 45 -19h128v-160l224 224l-224 224v-160z" />
    <glyph glyph-name="airplane" unicode="&#xe6b5;" 
d="M768 256l-183 183l439 329l-128 128l-549 -219l-172 172q-38 38 -83 45.5t-71.5 -19t-19 -71.5t45.5 -83l172 -172l-219 -549l128 -128l329 439l183 -183v-256h128l64 192l192 64v128h-256z" />
    <glyph glyph-name="truck" unicode="&#xe6b6;" 
d="M1024 320l-128 256h-192v128q0 26 -19 45t-45 19h-576q-26 0 -45 -19t-19 -45v-512l64 -64h81q-17 -30 -17 -64q0 -53 37.5 -90.5t90.5 -37.5t90.5 37.5t37.5 90.5q0 34 -17 64h354q-17 -30 -17 -64q0 -53 37.5 -90.5t90.5 -37.5t90.5 37.5t37.5 90.5q0 34 -17 64h81v192
zM704 320v192h133l96 -192h-229z" />
    <glyph glyph-name="qq1193403easyiconnet" unicode="&#xe6b7;" 
d="M459 807q-90 -20 -149 -89t-66 -164q-2 -28 -5 -28q-4 0 -10.5 -12.5t-6.5 -19.5q0 -10 -5 -18q-6 -8 -4 -33l1 -25l-22 -28q-39 -52 -54 -105t-3 -99q5 -20 10 -25t16 -1q8 4 24 21t21 27q6 8 9 3q0 -6 12.5 -30t23.5 -40q5 -6 8.5 -11t5 -8.5l1.5 -3.5q-1 -1 -15 -8
q-40 -21 -40 -71q-1 -17 6 -27q8 -11 11 -16q16 -28 79 -37q26 -4 50.5 -2t74.5 12q51 10 82.5 10t84.5 -10q146 -29 193 20q35 38 23 67q-5 12 -3 13q1 2 -4 13q-11 20 -41 32l-12 6l18 26q18 26 28 51l9 25l13 -20q10 -15 22 -27.5t20 -15.5q10 -3 18 17t11 54q1 32 -6 60
q-6 25 -23 60.5t-33 56.5q-11 15 -12.5 19.5t0.5 18.5q7 38 -14 72q-10 15 -14 46q-9 83 -63.5 148t-136.5 91q-23 8 -65 9.5t-68 -4.5zM606 684q25 -16 28 -59q3 -38 -12.5 -62.5t-38 -23t-37.5 31.5q-9 16 -8.5 44t8.5 45q10 20 27.5 27t32.5 -3zM463 681q25 -17 28 -61
t-18 -67q-21 -22 -44 -12q-37 16 -37 73q0 44 24 64q8 7 23 8t24 -5zM611 516q33 -9 62.5 -24t29.5 -24q0 -5 -17 -16t-31 -15q-8 -2 -8 -1q0 2 11 17q12 16 3 12q-5 -2 -16 -11q-57 -42 -121.5 -43t-119.5 40q-19 14 -20 12q-2 -1 6 -14q7 -12 5 -14t-18 5t-25 14
q-10 7 -10 14q0 11 37.5 28t77.5 25q28 5 76.5 3.5t77.5 -8.5v0zM390 396q50 -17 114 -17q32 0 32 -4q-2 -3 -18.5 -3t-42 2.5t-43.5 6.5q-55 10 -64 19q-6 5 8 1q6 -2 14 -5v0zM586 379q-10 -2 -29 -2h-19l20 2q20 2 29 2h5q-1 -1 -6 -2zM310 328q4 -2 -3 -46
q-6 -42 -4.5 -61.5t12.5 -31.5q20 -23 64 -23q35 -1 43 10.5t8 61.5v43l29 -3q77 -8 148.5 7t126.5 51q18 13 21 10q9 -10 12 -57.5t-4 -75.5q-20 -79 -84.5 -130t-149.5 -55q-117 -5 -198 74q-61 62 -70 146q-1 20 2 47.5t9 41.5l5 12l14 -9q5 -3 11.5 -7t7.5 -5v0z
M280 100q6 -6 17 -13q13 -8 26 -21q10 -9 38 -33q25 -20 25 -27.5t-8.5 -10t-38.5 -2.5q-42 0 -72.5 11t-38.5 29q-4 9 5 25q6 12 6.5 14.5t-4.5 4.5q-12 4 11 20q24 16 34 3v0zM774 101q21 -10 20 -21q0 -5 -8 -5q-5 0 1 -7q6 -6 8 -23q1 -11 -0.5 -15.5t-10.5 -11.5
q-26 -23 -94 -22q-42 0 -47 5q-10 10 26 30q40 23 46 35q4 7 14 10q11 2 20 16q8 12 12 13t13 -4zM562 636q-6 -7 -9 -17.5t-1 -17.5q3 -14 10 0q2 3 3 9q4 16 14 15q5 -1 7 -9l3 -17q3 -15 8 -5q2 5 2 17q0 18 -8 24q-16 14 -29 1v0zM446 639q-10 -11 -9.5 -28.5
t11.5 -25.5q8 -5 13 -4.5t12 8.5q9 8 9 24q0 19 -12.5 28t-23.5 -2v0zM470 618q0 -8 -5.5 -9.5t-8.5 4.5q-2 5 2 10.5t8 3.5q4 -1 4 -9v0z" />
    <glyph glyph-name="yl-5" unicode="&#xe6f9;" horiz-adv-x="1090" 
d="M934 384l122 122q14 14 14 35t-14.5 35t-35 14t-35.5 -14l-121 -122l-122 122q-14 14 -35 14t-35.5 -14t-14.5 -35t15 -35l115 -122l-122 -122q-14 -14 -14 -35t14.5 -35t35 -14t35.5 14l121 122l122 -122q14 -14 35 -14t35.5 14t14.5 35t-15 35zM492 826
q44 33 73.5 17.5t29.5 -69.5v-800q0 -52 -29 -65t-67 21l-231 192h-128q-52 0 -90 37.5t-38 90.5v262q0 53 38 90.5t90 37.5h122z" />
    <glyph glyph-name="wodewenjian" unicode="&#xe709;" 
d="M893 671h-360q-16 0 -28 11t-14 27v2v2v0v0q-3 31 -26.5 48t-57.5 17h-275q-36 0 -60.5 -24.5t-24.5 -59.5v-620q0 -35 24.5 -59.5t60.5 -24.5h761q35 0 60 24.5t25 59.5v513q0 35 -25 59.5t-60 24.5v0zM941 68q0 -17 -12.5 -29t-29.5 -12h-774q-18 0 -30.5 12t-12.5 29
v459h859v-459zM82 563v138q0 17 12.5 29.5t30.5 12.5h282q16 0 28 -11t14 -27v-2v-2v0q3 -31 26.5 -48.5t57.5 -17.5h354q23 0 38.5 -20.5t15.5 -51.5h-859z" />
    <glyph glyph-name="unie605" unicode="&#xe6c1;" 
d="M33 377l307 307q8 7 18.5 7t17.5 -7q5 -5 7 -11.5t0 -13.5t-7 -11l-263 -264h834q11 0 18.5 -7.5t7.5 -18.5q0 -4 -1.5 -8t-4 -7t-5.5 -5.5t-7 -3.5t-8 -1h-834l263 -264q3 -2 4.5 -4.5t2 -5t1 -5.5t0 -5.5t-1 -5.5t-2 -5.5t-4.5 -4.5q-8 -7 -18 -7q-10 1 -18 7l-307 307
q-7 8 -7 18.5t7 18.5v0z" />
    <glyph glyph-name="unie607" unicode="&#xe6c8;" 
d="M991 377l-307 307q-8 7 -18.5 7t-18 -7.5t-7.5 -18t8 -17.5l263 -264h-834q-7 0 -13 -3.5t-9.5 -9.5t-3.5 -12.5t3.5 -12.5t9.5 -9.5t13 -3.5h834l-263 -264q-8 -7 -8 -17.5t7.5 -18t18.5 -7.5q10 1 18 7l307 307q4 4 5.5 9t1.5 9.5t-1.5 9.5t-5.5 9z" />
    <glyph glyph-name="lock-fill" unicode="&#xe6d7;" 
d="M823 354h-68v159q0 101 -71.5 172t-171.5 71t-171.5 -71t-71.5 -172v-159h-68q-25 0 -42.5 -18t-17.5 -42v-438q0 -25 17.5 -42.5t42.5 -17.5h622q25 0 42.5 17.5t17.5 42.5v438q0 24 -17.5 42t-42.5 18zM546 63v-95q0 -8 -8 -8h-52q-8 0 -8 8v95q-18 10 -29.5 27.5
t-11.5 39.5q0 31 22 52.5t53 21.5t53 -21.5t22 -52.5q0 -22 -11.5 -39.5t-29.5 -27.5zM662 354h-299v155q0 62 43.5 106t105.5 44t106 -44t44 -106v-155z" />
    <glyph glyph-name="mark" unicode="&#xe6cc;" 
d="M366 448q0 -30 -21.5 -51.5t-52 -21.5t-52 21.5t-21.5 51.5t21.5 51.5t52 21.5t52 -21.5t21.5 -51.5zM585 448q0 -30 -21.5 -51.5t-51.5 -21.5t-51.5 21.5t-21.5 51.5t21.5 51.5t51.5 21.5t51.5 -21.5t21.5 -51.5zM805 448q0 -30 -21.5 -51.5t-52 -21.5t-52 21.5
t-21.5 51.5t21.5 51.5t52 21.5t52 -21.5t21.5 -51.5zM512 741q-117 0 -218 -40t-161 -107.5t-60 -145.5q0 -64 41 -122t115 -100l50 -29l-15 -55q-14 -52 -40 -98q86 36 157 98l24 21l33 -3q39 -5 74 -5q117 0 218 40t161 107.5t60 145.5t-59.5 145.5t-161 107.5t-218.5 40
v0zM1024 448q0 -99 -68.5 -183.5t-186.5 -133.5t-257 -49q-40 0 -83 5q-113 -100 -263 -138q-28 -8 -65 -13h-3q-8 0 -15 6t-9 16v0q-2 3 -0.5 7.5t1 5.5t2.5 5l4 5l4 5l4 5q4 5 18 20t20 21.5t17.5 23t18.5 29.5t15.5 33.5t14.5 43.5q-90 51 -141.5 125.5t-51.5 160.5
q0 74 40.5 142t109 117t163.5 78t199 29t199 -29t163.5 -78t109 -117t40.5 -142v0z" />
    <glyph glyph-name="thumbsup" unicode="&#xe6ba;" 
d="M183 128q0 15 -11 26t-26 11t-25.5 -11t-10.5 -26t10.5 -25.5t25.5 -11.5q15 0 26 11t11 26zM274 421v-366q0 -15 -10.5 -26t-25.5 -11h-165q-15 0 -26 11t-10 26v366q0 14 10.5 25t25.5 11h165q15 0 25.5 -11t10.5 -25zM951 421q0 -50 -32 -86q9 -25 9 -43
q2 -43 -25 -78q10 -32 0 -67q-8 -33 -30 -54q5 -64 -28 -103q-37 -44 -113 -45h-74q-38 0 -82.5 9t-69 16.5t-68.5 22.5q-71 25 -91 25q-14 1 -25 11.5t-11 25.5v366q0 15 10 25.5t25 11.5q13 1 43 33.5t58 69.5q39 49 58 68q10 11 17.5 28t10 27.5t7.5 34.5q4 22 7 34.5
t11 30t20 28.5q11 11 26 11q26 0 47 -6t34 -15t22.5 -23t14 -25.5t7 -28.5t2.5 -26t1 -22q0 -22 -5.5 -44t-11 -34.5t-15.5 -31.5q-2 -4 -6 -10.5t-6.5 -12.5t-4.5 -14h158q45 0 77.5 -32.5t32.5 -76.5v0z" />
    <glyph glyph-name="file" unicode="&#xe6bb;" 
d="M313 163h397v69h-397v-69zM313 26h397v68h-397v-68zM611 747h-430q-14 0 -23.5 -10t-9.5 -24v-825q0 -14 9.5 -24t23.5 -10h661q14 0 24 10t10 24v619zM644 626l131 -119h-131v119zM809 -77h-595v755h364v-206q0 -14 9.5 -24t23.5 -10h198v-515zM313 300h397v69h-397v-69
z" />
    <glyph glyph-name="doubleright" unicode="&#xe6bd;" 
d="M749 277l-294 -294q-10 -9 -10 -22.5t10 -22.5v0q9 -9 22.5 -9t22.5 9l317 317q18 18 18 44.5t-18 45.5l-317 317q-9 9 -22.5 9t-22.5 -9v0q-10 -9 -10 -22.5t10 -22.5l294 -294q9 -10 9 -23t-9 -23zM494 277l-294 -294q-9 -9 -9 -22.5t9 -22.5v0q9 -9 22.5 -9t22.5 9
l317 317q19 18 19 44.5t-19 45.5l-317 317q-9 9 -22.5 9t-22.5 -9v0q-9 -9 -9 -22.5t9 -22.5l294 -294q9 -10 9 -23t-9 -23z" />
    <glyph glyph-name="doubleleft" unicode="&#xe6be;" 
d="M277 323l294 294q10 9 10 22.5t-10 22.5v0q-9 9 -22.5 9t-22.5 -9l-317 -317q-18 -19 -18 -45.5t18 -44.5l317 -317q9 -9 22.5 -9t22.5 9v0q10 9 10 22.5t-10 22.5l-294 294q-9 10 -9 23t9 23zM532 323l294 294q9 9 9 22.5t-9 22.5v0q-9 9 -22.5 9t-22.5 -9l-317 -317
q-19 -19 -19 -45.5t19 -44.5l317 -317q9 -9 22.5 -9t22.5 9v0q9 9 9 22.5t-9 22.5l-294 294q-9 10 -9 23t9 23z" />
    <glyph glyph-name="caretup" unicode="&#xe66d;" 
d="M1014 197l-476 558q-11 12 -26 12t-26 -12l-476 -558q-16 -19 -7 -43.5t33 -24.5h952q24 0 33 24.5t-7 43.5z" />
    <glyph glyph-name="caretdown" unicode="&#xe6ae;" 
d="M1014 699l-476 -558q-11 -12 -26 -12t-26 12l-476 558q-16 19 -7 43.5t33 24.5h952q24 0 33 -24.5t-7 -43.5z" />
    <glyph glyph-name="zhifubao" unicode="&#xe6f3;" horiz-adv-x="1294" 
d="M826 167q39 72 69.5 150.5t40.5 121.5l11 42h-16v0h-137h-145v113h354v49h-354v169h-162v-169h-322v-49h322v-113h-274v-48h557q0 -6 -1 -8t-7 -8q0 -26 -13 -65.5t-25.5 -65.5t-34.5 -71q-60 24 -115 41.5t-98.5 27.5t-84 15.5t-69.5 7.5t-57.5 -1t-45.5 -6t-36 -9.5
t-26.5 -10t-19.5 -10l-12 -6.5q-57 -40 -87.5 -85t-35 -86t4 -81t29 -72t43 -56t42 -36.5t28.5 -11.5q71 -15 136.5 -17t121 9.5t105 31t93 50t79 63.5t69.5 73q9 -8 25 -8q39 -22 168 -84t238.5 -114l109.5 -52v242q-11 0 -27 2.5t-39.5 8.5t-45 11.5t-55 16t-57 18
t-63 20.5t-60.5 20l-63 21t-58 19v0zM616 94q-41 -52 -88 -90t-88.5 -57.5t-85.5 -29t-77 -9.5t-66 5t-49.5 10t-28.5 10q-36 9 -59 43t-27.5 74t15 80.5t63.5 60.5q71 23 143.5 25.5t139.5 -14t116.5 -35.5t108.5 -48q-4 -8 -8 -14t-6 -8l-3 -3v0zM616 94z" />
    <glyph glyph-name="laba1" unicode="&#xe673;" 
d="M228 583v29h-86q-35 0 -60 -25.5t-25 -60.5v-284q0 -36 25 -61t60 -25h86v29v398zM284 168l228 -182v796l-228 -182v-432zM228 213v-57l254 -211q36 -30 61.5 -18t25.5 58v798q0 47 -25.5 59t-61.5 -19l-254 -211v-57h-57q-24 0 -40.5 -16.5t-16.5 -40.5v-228
q0 -23 16.5 -40t40.5 -17h57v0zM683 598l241 241l40 -40l-241 -241zM683 173l241 -241l40 40l-241 241zM683 441h284v-57h-284v57z" />
    <glyph glyph-name="bookopen" unicode="&#xe6e4;" 
d="M399 269v-69l-204 82v69zM399 482v-69l-204 82v69zM950 837q23 -13 23 -43v-656q0 -35 -33 -47l-408 -164q-8 -2 -10 -2t-5 -1t-5 -1t-5 1t-5 1l-10 2l-408 164q-33 12 -33 47v656q0 30 23 43q22 16 47 6l391 -158l391 158q25 10 47 -6v0zM461 30v573l-328 131v-573z
M891 161v573l-328 -131v-573zM829 351v-69l-204 -82v69zM829 564v-69l-204 -82v69l204 82v0z" />
    <glyph glyph-name="fasmileo" unicode="&#xe613;" horiz-adv-x="1076" 
d="M289 -37q114 -66 248 -66t248 66q113 68 179 179q65 112 65 247t-65 247q-67 114 -179 180q-114 65 -248 65t-248 -65q-112 -66 -179 -180q-66 -112 -66 -247t66 -247q66 -111 179 -179v0zM247 680q57 55 131 87q74 33 159 33q84 0 159 -33q74 -32 131 -87
q56 -56 89 -131q32 -75 32 -160t-32 -159q-33 -76 -89 -130q-56 -57 -131 -89q-74 -32 -159 -32t-159 32q-75 32 -131 89q-56 54 -89 130q-32 74 -32 159t32 160q33 75 89 131v0zM373 472q34 0 58 24t24 59q0 33 -24.5 57t-57.5 24q-34 0 -58.5 -24t-24.5 -57
q0 -35 24.5 -59t58.5 -24v0zM390 149q67 -47 147 -47t146 47q65 49 89 125q5 15 -2 31q-9 16 -25 21q-14 5 -31 -2q-15 -9 -20 -26q-18 -52 -60 -82q-42 -32 -97 -32t-97 32q-43 30 -60 82q-5 17 -20 26q-16 7 -31 2q-16 -5 -25 -21q-7 -16 -2 -31q24 -76 88 -125v0z
M702 472q33 0 57 24t24 59q0 33 -24 57t-57 24q-35 0 -59 -24t-24 -57q0 -35 24 -59t59 -24v0z" />
    <glyph glyph-name="tingzhi" unicode="&#xe6fa;" 
d="M284 703h457q37 0 64 -27t27 -64v-454q0 -38 -27 -64.5t-64 -26.5h-457q-38 0 -65 26.5t-27 64.5v454q0 37 27 64t65 27z" />
    <glyph glyph-name="yl-1" unicode="&#xe6fb;" 
d="M599 -119l-377 252h-125q-35 0 -59.5 24.5t-24.5 58.5v336q0 34 24.5 58.5t59.5 24.5h125l377 252q35 0 59.5 -24.5t24.5 -59.5v-838q0 -35 -24.5 -59.5t-59.5 -24.5v0z" />
    <glyph glyph-name="iconfontunie059" unicode="&#xe6bf;" 
d="M512 832q-185 0 -316.5 -131.5t-131.5 -316.5t131.5 -316.5t316.5 -131.5t316.5 131.5t131.5 316.5t-131.5 316.5t-316.5 131.5zM512 -32q-172 0 -294 122t-122 294t122 294t294 122t294 -122t122 -294t-122 -294t-294 -122zM272 896q-99 0 -169.5 -70.5t-70.5 -169.5
v-34q0 -7 4.5 -11.5t11.5 -4.5t11.5 4.5t4.5 11.5v34q0 86 61 147t147 61h28q7 0 11.5 4.5t4.5 11.5t-4.5 11.5t-11.5 4.5h-28zM748 896h-28q-7 0 -11.5 -4.5t-4.5 -11.5t4.5 -11.5t11.5 -4.5h28q86 0 147 -61t61 -147v-34q0 -7 4.5 -11.5t11.5 -4.5t11.5 4.5t4.5 11.5v34
q0 99 -70.5 169.5t-169.5 70.5zM512 375v223q0 6 -4.5 11t-11.5 5t-11.5 -5t-4.5 -11v-230q0 -7 5 -11l157 -158q5 -4 11.5 -4t11.5 4q11 12 0 23zM93 -122l96 128q9 13 -3.5 22.5t-22.5 -2.5l-96 -128q-9 -13 3 -23q5 -3 10 -3q8 0 13 6zM861 26q-10 12 -22.5 2.5
t-3.5 -22.5l96 -128q5 -6 13 -6q5 0 10 3q12 10 3 23z" />
    <glyph glyph-name="back1" unicode="&#xe6c0;" horiz-adv-x="1463" 
d="M596 712v139q0 29 -27.5 41t-49.5 -8l-487 -424q-32 -28 -32 -68.5t31 -68.5l487 -439q23 -20 50.5 -8t27.5 41v176q0 40 29 68.5t71 28.5q465 1 696 -203q17 -12 35.5 -10t29.5 19t3 36q-57 135 -144 242.5t-189 177t-211.5 109.5t-222.5 50q-40 4 -68.5 33.5
t-28.5 67.5v0z" />
    <glyph glyph-name="caretright" unicode="&#xe69c;" 
d="M171 -50q0 -32 31 -46t58 7l545 426q30 23 30 60.5t-30 61.5l-546 425q-26 21 -57 7t-31 -46v-895z" />
    <glyph glyph-name="staro" unicode="&#xe6cd;" horiz-adv-x="1071" 
d="M827 -128q-15 0 -29 7l-263 139l-263 -139q-14 -7 -29 -7q-29 0 -48 22q-18 22 -14 51l51 293l-213 207q-28 28 -16 64q6 18 19.5 29t31.5 14l294 43l131 266q17 35 56 35t56 -35l132 -266l294 -43q18 -3 31.5 -14t18.5 -29q12 -36 -16 -64l-212 -207l50 -293
q5 -29 -14 -51t-48 -22v0zM535 82q16 0 29 -7l236 -124q7 -4 14 1t6 14l-45 262q-6 33 18 55l190 186q7 6 4 14t-11 10l-264 38q-32 5 -47 34l-118 239q-3 8 -11.5 8t-12.5 -8l-118 -239q-15 -29 -47 -34l-264 -38q-8 -2 -10.5 -10t3.5 -14l191 -186q23 -23 17 -55l-45 -262
q-1 -9 6 -14t14 -1l236 124q14 7 29 7v0z" />
    <glyph glyph-name="chanpin" unicode="&#xe6d8;" horiz-adv-x="1025" 
d="M236.5 840q74.5 0 127 -53t52.5 -127v-180h-180q-74 0 -127 52.5t-53 127t53 127.5t127.5 53zM236 896q-97 0 -166.5 -69.5t-69.5 -167t69.5 -167t166.5 -69.5h184q22 0 37.5 15.5t15.5 37.5v184q0 97 -69.5 166.5t-167.5 69.5v0v0v0zM237 285v0h176v-176
q0 -73 -51.5 -124.5t-124.5 -51.5t-124.5 51.5t-51.5 124.5t51.5 124.5t124.5 51.5zM236 345q-97 0 -166.5 -69.5t-69.5 -167t69.5 -167t167 -69.5t167 69.5t69.5 166.5v184q0 22 -15.5 37.5t-37.5 15.5h-184v0v0v0zM790 840q74 0 126 -52t52 -126t-52 -126.5t-126 -52.5
h-179v179q0 74 52.5 126t126.5 52zM788 896q-98 0 -167.5 -69.5t-69.5 -166.5v-184q0 -22 15.5 -37.5t37.5 -15.5h184q98 0 167 69.5t69 167.5t-69 167t-167 69v0v0v0zM788 286v0q73 0 125 -52t52 -125.5t-52 -125.5t-125.5 -52t-125.5 52t-52 125v178h178zM788 345h-184
q-22 0 -37.5 -15.5t-15.5 -37.5v-184q0 -97 69.5 -166.5t167.5 -69.5t167 69.5t69 167t-69 167t-167 69.5v0v0v0zM788 345z" />
    <glyph glyph-name="arch" unicode="&#xe6b8;" 
d="M219 85q0 15 -10.5 26t-25.5 11t-26 -11t-11 -26t11 -25.5t26 -10.5t25.5 10.5t10.5 25.5zM878 414q0 30 -22.5 52t-50.5 22h-202q0 33 27.5 91t27.5 91q0 57 -18 83.5t-73 26.5q-15 -15 -22 -48.5t-17.5 -71.5t-33.5 -63q-13 -13 -44 -52q-3 -2 -13.5 -16.5t-18 -23.5
t-20 -24.5t-22.5 -25.5t-22 -20t-23 -15t-20 -5h-18v-366h18q7 0 17.5 -1.5t19 -4t22 -6.5t20 -6.5t20 -7t16.5 -6.5q121 -41 196 -41h69q110 0 110 95q0 15 -3 32q17 9 27 30t10 42t-10 40q30 28 30 68q0 14 -6 31.5t-14 27.5q18 0 30.5 26.5t12.5 46.5v-1zM951 415
q0 -51 -28 -93q5 -19 5 -39q0 -45 -22 -83q2 -12 2 -24q0 -58 -34 -102q0 -80 -49 -126t-130 -46h-73q-55 0 -108.5 13t-123.5 38q-67 23 -79 23h-165q-30 0 -51.5 21t-21.5 52v365q0 31 21.5 52.5t51.5 21.5h157q20 13 78 88q33 43 61 73q14 15 20.5 49.5t17.5 72t35 61.5
q23 21 52 21q48 0 86 -18.5t58 -58t20 -106.5q0 -53 -27 -109h100q60 0 103.5 -43.5t43.5 -102.5v0z" />
    <glyph glyph-name="emojifill" unicode="&#xe61a;" 
d="M511 832q-91 0 -174 -35.5t-143 -95.5t-95.5 -143t-35.5 -174t35.5 -174t95.5 -143t143 -95.5t174 -35.5t174 35.5t143 95.5t95.5 143t35.5 174t-35.5 174t-95.5 143t-143 95.5t-174 35.5zM608 493q0 20 14 34t34 14t34 -14t14 -34v-64q0 -20 -14 -34t-34 -14t-34 14
t-14 34v64zM320 493q0 20 14 34t34 14t34 -14t14 -34v-64q0 -20 -14 -34t-34 -14t-34 14t-14 34v64zM740 235q-41 -53 -100.5 -82.5t-127.5 -29.5q-67 0 -126.5 29t-100.5 81q-8 11 -6.5 24t12 21t23.5 6.5t22 -11.5q32 -41 78 -63.5t98 -22.5q53 0 99.5 22.5t78.5 64.5
q8 11 21 12.5t23.5 -6.5t12.5 -21t-7 -24z" />
    <glyph glyph-name="emojiflashfill" unicode="&#xe61b;" 
d="M511 832q-91 0 -174 -35.5t-143 -95.5t-95.5 -143t-35.5 -174t35.5 -174t95.5 -143t143 -95.5t174 -35.5t174 35.5t143 95.5t95.5 143t35.5 174t-35.5 174t-95.5 143t-143 95.5t-174 35.5zM256 476.5q0 6.5 4.5 11.5t11.5 5q27 0 45 18t18 46q0 6 4.5 11t11 5t11.5 -5
t5 -11q0 -26 20 -43.5t46 -19.5q6 0 10.5 -4.5t4.5 -11t-4.5 -11.5t-10.5 -5q-23 -2 -42.5 -19.5t-23.5 -40.5q1 -3 1 -4q0 -7 -4.5 -12t-10.5 -5h-1h-1.5h-0.5q-7 0 -11.5 5t-3.5 12v4q-4 25 -22 42t-41 17q-7 0 -11.5 4.5t-4.5 11zM740 235q-41 -53 -100.5 -82.5
t-127.5 -29.5q-67 0 -126.5 29t-100.5 81q-8 11 -6.5 24t12 21t23.5 6.5t22 -11.5q32 -41 78 -63.5t98 -22.5q53 0 99.5 22.5t78.5 64.5q8 11 21 12.5t23.5 -6.5t12.5 -21t-7 -24zM754 462q-23 -2 -42.5 -19.5t-23.5 -40.5q1 -3 1 -4q0 -7 -4.5 -12t-10.5 -5h-1h-1.5h-0.5
q-7 0 -11.5 5t-3.5 12v4q-4 25 -22 42t-41 17q-7 0 -11.5 4.5t-4.5 11t4.5 11.5t11.5 5q27 0 45 18t18 46q0 6 4.5 11t11 5t11.5 -5t5 -11q0 -26 20 -43.5t46 -19.5q6 0 10.5 -4.5t4.5 -11t-4.5 -11.5t-10.5 -5z" />
    <glyph glyph-name="remen" unicode="&#xe674;" 
d="M350 -42q-20 42 -27.5 78.5t-1.5 67.5t17 53.5t29 50.5q22 31 37 65.5t19 54.5l5 19q1 -2 3.5 -6t8.5 -16.5t8.5 -26t5 -35t-3.5 -42.5q45 50 61.5 122.5t7.5 114.5q55 -38 95 -98.5t58 -127.5t12.5 -140t-37.5 -134q94 53 150.5 117.5t72.5 126t10 125t-29.5 115.5
t-53.5 98t-55 73t-41 38q11 -23 14 -51t-4 -57t-27 -46q-19 73 -50.5 132t-63 91.5t-60 54t-46.5 29.5l-18 7q24 -162 -162 -391q-3 48 -9 77.5t-25 64.5q-4 -53 -48 -142t-53 -132q-21 -102 24 -179t177 -151v0z" />
    <glyph glyph-name="yuandian" unicode="&#xe6dc;" 
d="M410 416q0 -54 38 -92t92 -38t92 38t38 92t-38 92t-92 38t-92 -38t-38 -92z" />
    <glyph glyph-name="zu" unicode="&#xe6da;" horiz-adv-x="1025" 
d="M755 767l-419 -383l419 -383q11 -11 11 -26.5t-11 -26.5t-26.5 -11t-26.5 11l-446 408q-11 11 -11 28t11 28l446 408q11 11 26.5 11t26.5 -11t11 -26.5t-11 -26.5z" />
    <glyph glyph-name="you" unicode="&#xe6db;" horiz-adv-x="1025" 
d="M267 820q11 11 26.5 11t26.5 -11l447 -408q11 -11 10 -28q1 -17 -10 -28l-447 -408q-11 -11 -26.5 -11t-26.5 11t-11 26.5t11 26.5l420 383l-420 383q-11 11 -11 26.5t11 26.5z" />
    <glyph glyph-name="text" unicode="&#xe61c;" 
d="M887 599l-192 192q-5 4 -11 6.5t-12 2.5h-448q-40 0 -68 -28t-28 -68v-640q0 -40 28 -68t68 -28h576q40 0 68 28t28 68v512q0 13 -9 23zM704 691l115 -115h-115v115zM800 32h-576q-13 0 -22.5 9.5t-9.5 22.5v640q0 13 9.5 22.5t22.5 9.5h416v-192q0 -13 9.5 -22.5
t22.5 -9.5h160v-448q0 -13 -9.5 -22.5t-22.5 -9.5zM288 544h192q13 0 22.5 9.5t9.5 22.5t-9.5 22.5t-22.5 9.5h-192q-13 0 -22.5 -9.5t-9.5 -22.5t9.5 -22.5t22.5 -9.5zM608 416h-320q-13 0 -22.5 -9.5t-9.5 -22.5t9.5 -22.5t22.5 -9.5h320q13 0 22.5 9.5t9.5 22.5
t-9.5 22.5t-22.5 9.5zM608 224h-320q-13 0 -22.5 -9.5t-9.5 -22.5t9.5 -22.5t22.5 -9.5h320q13 0 22.5 9.5t9.5 22.5t-9.5 22.5t-22.5 9.5z" />
    <glyph glyph-name="videofill" unicode="&#xe61d;" 
d="M789 767h-554q-26 0 -48.5 -9t-45.5 -35t-39.5 -67t-27 -110.5t-10.5 -160.5q0 -92 10.5 -162t27 -111.5t39.5 -67.5t45.5 -35t48.5 -9h554q34 0 61 18.5t44.5 46t30.5 67t19.5 74.5t10 74.5t4.5 62t1 42t-1 42t-4.5 62t-10 74t-19.5 73.5t-30.5 67t-44.5 46t-61 18z
M690 351l-257 -156q-7 -5 -16 -5t-16 5q-16 9 -16 27v322q0 19 16.5 28t32.5 -1l257 -166q15 -9 14.5 -27t-15.5 -27z" />
    <glyph glyph-name="icondd" unicode="&#xe6e6;" 
d="M349 386q0 -69 48.5 -117.5t117 -48.5t117 48.5t48.5 117.5t-48.5 117.5t-117 48.5t-117 -48.5t-48.5 -117.5v0zM514.5 17q-75.5 0 -143.5 29q-67 28 -118 79t-79 117q-29 69 -29 144t29 144q28 66 79 117t118 79q68 29 143.5 29t143.5 -29q67 -28 118 -79t79 -117
q29 -69 29 -144t-29 -144q-28 -66 -79 -117t-118 -79q-68 -29 -143.5 -29zM514 715q-136 0 -232 -96.5t-96 -232.5t96 -232t232 -96t232.5 96t96.5 232t-96.5 232.5t-232.5 96.5z" />
    <glyph glyph-name="hezuo" unicode="&#xe6d4;" horiz-adv-x="1423" 
d="M17 409l79 -41q4 -2 10.5 -4.5t21.5 1.5t23 21l197 412q3 4 5 10.5t-0.5 20.5t-15.5 21l-87 42q-3 2 -8 3.5t-17 -2t-20 -17.5q0 -6 -50.5 -111t-100.5 -206.5t-51 -102.5l-2.5 -10t1.5 -18.5t15 -18.5v0zM17 409zM1316 367l81 38q2 0 4 1.5t8.5 6.5t8.5 10.5t4 15
t-5 20.5l-203 410q0 1 -1.5 3.5t-6 8.5t-9.5 8.5t-13.5 5t-17.5 -3.5l-87 -42q-1 0 -2.5 -1t-6 -5t-6.5 -8.5t-3 -13t4 -17.5q4 -4 55.5 -108.5t101 -207l49.5 -102.5q0 -2 1.5 -3.5t6 -6.5t9.5 -7.5t12.5 -4t15.5 2.5v0zM1316 367zM209 369l27 57l94 -119q7 1 18 2.5
t33 -4.5t32 -23q2 -2 5 -7t7.5 -22.5t-1.5 -37.5q13 -9 14 -15q5 1 12.5 2t25.5 -3.5t29 -17.5l7 -7t9.5 -18t4.5 -30q17 -7 20 -17q5 1 12.5 2t24 -2t25.5 -14q3 -3 7 -7.5t10 -17.5t6 -25l38 -28q4 0 10 -1.5t17.5 -9.5t14.5 -20l34 -26q2 0 6 -1.5t13.5 -2t17 1.5t14 11
t7.5 25l-129 98q-1 2 -1.5 4.5t-0.5 9t2.5 11.5t10.5 8t21 1l193 -136q4 -2 9.5 -3t19 2.5t22.5 16.5q2 3 4 8t1 19.5t-13 26.5l-205 149q-1 1 -2 4t-1.5 10t1.5 12t9.5 9t20.5 3l244 -172q4 -2 10 -3.5t19 1t20 14.5q2 2 4.5 7t3.5 19t-8 26l-269 196q0 1 -0.5 2.5
t-1.5 6.5t-0.5 8.5t2 8.5t6 7t11 3.5t17.5 -1.5l277 -198l12.5 -2.5t24 3.5t24.5 20q2 5 5.5 11.5t2 24.5t-15.5 31l-392 342q-3 2 -8.5 4t-20 4t-28.5 -0.5t-30.5 -13.5t-29.5 -32q0 -4 -1.5 -12.5t-9.5 -30t-21.5 -39t-41.5 -35t-65 -23.5q-2 0 -5 0.5t-12.5 2.5
t-16.5 4.5t-17 7.5t-14 12t-7 17t3 22q3 4 7 12t11 36t6 61q0 5 1.5 15t11.5 36t26 46h-141l31 65h214q9 5 25.5 13t57.5 21t70 11q86 -5 109 -18q13 -4 33.5 -10t65 -14t67.5 -4l190 -396l-30 -69q2 -2 5.5 -6.5t11 -18t11 -27.5t1 -34.5t-13.5 -40.5q-10 -19 -32.5 -32.5
t-56.5 -15.5q-1 -2 0.5 -12.5t-5.5 -29.5t-22 -31q-2 -4 -8 -9.5t-28 -12.5t-49 -3q1 -4 0.5 -12t-9.5 -26.5t-27 -30.5q-2 -2 -5.5 -4t-15.5 -6.5t-25.5 -5t-33.5 5t-41 19.5q0 -2 -1 -5t-6.5 -11.5t-12.5 -15.5t-20 -14t-30 -10q-42 -7 -67 17q-2 -3 -5.5 -8.5
t-14.5 -17.5t-23 -18.5t-30 -6t-35 13.5l-4.5 4.5t-8 11t-8 17t-1 22t9.5 26.5q-3 -3 -7 -8.5t-16.5 -17t-26 -16.5t-32.5 -1t-37 22q-2 1 -4 3t-6.5 9.5t-6 16.5t1.5 23.5t12 30.5q-2 -3 -5.5 -6.5t-15.5 -10.5t-24 -10t-29 2t-33 19l-4.5 4.5t-7.5 11t-7 18t0 25t11 31.5
l-6 -6t-16 -11.5t-25 -10t-31 3t-35 21.5l-3 3t-5.5 9t-5.5 15t-1.5 21.5t4.5 27.5l59 81l-80 102v0zM209 369z" />
    <glyph glyph-name="iconfontxiaolian" unicode="&#xe675;" 
d="M512 896q-139 0 -257 -68.5t-186.5 -186.5t-68.5 -257t68.5 -257t186.5 -186.5t257 -68.5t257 68.5t186.5 186.5t68.5 257t-68.5 257t-186.5 186.5t-257 68.5zM682.5 648q26.5 0 45.5 -25t19 -60.5t-19 -60.5t-45.5 -25t-45 25t-18.5 60.5t18.5 60.5t45 25zM338.5 647
q26.5 0 45 -25t18.5 -60t-18.5 -60t-45 -25t-45.5 25t-19 60t19 60t45.5 25zM506.5 72q-131.5 0 -214.5 81t-99 224h41q51 -221 272.5 -221t271.5 221h43q-16 -143 -99.5 -224t-215 -81z" />
    <glyph glyph-name="iconfontyoujian" unicode="&#xe676;" 
d="M945 705q-10 -1 -17 -1q-416 -1 -831 0q-7 0 -17 1q-16 -6 -16 -23v-2q36 -24 37 -26q118 -107 338 -308q40 -37 73 -37t74 37q247 227 335 306q1 1 39 28v2q0 17 -15 23zM696 343q-22 20 -42 -1q-8 -8 -47 -43q-46 -40 -95 -40t-95 41q-8 6 -64 57q-169 -139 -188 -154
q-6 -6 -101 -81v-35q0 -10 7 -17t17 -7h848q10 0 17 7t7 17v42q-149 118 -165 131q-59 48 -99 83zM64 620v-438q106 88 252 210q-132 120 -252 228zM960 189v431q-102 -93 -249 -226q175 -144 249 -205v0z" />
    <glyph glyph-name="iconfontliulan" unicode="&#xe677;" horiz-adv-x="1025" 
d="M1024 387q0 -19 -11 -39q-80 -130 -215 -208.5t-285.5 -78.5t-285.5 78.5t-216 208.5q-11 20 -11 39t11 39q80 130 215.5 208.5t285.5 78.5t285.5 -78.5t215.5 -208.5q11 -20 11 -39zM951 387q-87 134 -218 200q35 -59 35 -127q0 -105 -75 -179.5t-181 -74.5t-181 74.5
t-75 179.5q0 68 35 127q-131 -66 -218 -200q76 -116 190.5 -184.5t248.5 -68.5t248.5 68.5t190.5 184.5zM532 585q8 8 8 19.5t-8 19.5t-20 8q-71 0 -122.5 -51t-51.5 -121q0 -12 8 -19.5t19.5 -7.5t19.5 8t8 19q0 48 35 82.5t84 34.5q12 0 20 8z" />
    <glyph glyph-name="iconfontordinaryliulan" unicode="&#xe678;" 
d="M512 464q-33 0 -56.5 -23.5t-23.5 -56.5t23.5 -56.5t56.5 -23.5t56.5 23.5t23.5 56.5t-23.5 56.5t-56.5 23.5zM512 704q-189 0 -384 -204q-60 -62 -96 -116q9 -13 25 -34.5t67.5 -77t104.5 -97.5t131 -76.5t152 -34.5t151 33t133.5 80t102.5 94t69 80l24 33
q-9 13 -25 34.5t-67.5 77t-104.5 97.5t-131 76.5t-152 34.5zM512 184q-83 0 -141.5 58.5t-58.5 141.5t58.5 141.5t141.5 58.5t141.5 -58.5t58.5 -141.5t-58.5 -141.5t-141.5 -58.5v0z" />
    <glyph glyph-name="icon18" unicode="&#xe6c2;" 
d="M653 -64h326q18 0 28.5 11.5t10.5 26.5v333q0 18 -11.5 28.5t-27.5 10.5h-166v83v11.5t3 30.5t8.5 45t18 51t30 54t47 49.5t66.5 39.5v122q-8 -1 -21.5 -3.5t-53 -16.5t-75 -35t-79 -62t-75 -93.5t-53 -134.5t-21.5 -180v-326q5 -19 17.5 -32t27.5 -13zM38 -64h327
q18 0 28 11.5t10 26.5v333q0 18 -11.5 28.5t-26.5 10.5h-160v83v11.5t3 30.5t8.5 45t18 51t30 54t47 49.5t66.5 39.5v122q-8 -1 -21.5 -3.5t-53 -16.5t-75 -35t-79 -62t-75 -93.5t-53 -134.5t-21.5 -180v-326q0 -19 12 -32t26 -13z" />
    <glyph glyph-name="icon19-copy" unicode="&#xe6c3;" 
d="M371 832h-333q-14 0 -26 -12t-12 -26v-327q0 -18 11.5 -28t26.5 -10h167v-83v-12.5t-3 -30t-8.5 -44.5t-18.5 -51.5t-30.5 -54.5t-46.5 -49t-66 -40v-128q8 1 21.5 3.5t53 16.5t75 35t79 62t75 93.5t53 134.5t21.5 180v333q0 14 -12 26t-27 12zM986 832h-327
q-18 0 -31.5 -12t-13.5 -26v-327q0 -18 11.5 -28t27.5 -10h166v-83v-12.5t-3 -30t-8.5 -44.5t-18 -51.5t-30 -54.5t-47 -49t-66.5 -40v-128q8 1 21.5 3.5t53 16.5t75 35t79 62t75 93.5t53 134.5t21.5 180v333q0 14 -12 26t-26 12z" />
    <glyph glyph-name="zhengpinbaozheng" unicode="&#xe679;" 
d="M511.5 -74q-93.5 0 -178.5 36t-146.5 98t-98 147t-36.5 178.5t36.5 178.5t98 146.5t146.5 98t178.5 36.5t179 -36.5t147 -98t98 -146.5t36.5 -178.5t-36.5 -178.5t-98 -147t-147 -98t-179 -36zM512 820q-88 0 -168.5 -34.5t-139 -92.5t-93 -138.5t-34.5 -169t34.5 -169
t93 -138.5t139 -92.5t168.5 -34.5t168.5 34.5t138.5 92.5t92.5 138.5t34.5 169t-34.5 169t-92.5 138.5t-138.5 92.5t-168.5 34.5zM510 233q-91 0 -156 64.5t-65 156t65 156t156 64.5t155.5 -64.5t64.5 -156t-64.5 -156t-155.5 -64.5zM509.5 649q-80.5 0 -137.5 -57.5
t-57 -138t57 -138t137.5 -57.5t138 57.5t57.5 138t-57.5 138t-138 57.5zM619 96v0q-7 0 -11 9l-66 127q-6 12 5.5 18t17.5 -6l54 -104l23 44q5 9 14 7l43 -8l-55 107q-6 11 5.5 17t17.5 -6l67 -129q3 -7 -1.5 -13.5t-12.5 -4.5l-60 10l-30 -59q-4 -9 -11 -9zM406 96v0
q-7 0 -12 9l-26 56l-64 -9q-8 -1 -12.5 5.5t-0.5 13.5l65 129q6 12 17 6t6 -17l-55 -108l50 8q9 1 13 -8l19 -39l54 107q6 11 17.5 5.5t5.5 -16.5l-66 -133q-4 -9 -11 -9zM402 360v22h19v139h23v-139h61v161h-101v24h224v-24h-100v-56h99v-23h-99v-82h102v-22h-228z" />
    <glyph glyph-name="pause" unicode="&#xe6f7;" 
d="M512 883q-101 0 -193.5 -39.5t-159.5 -106.5t-106.5 -159.5t-39.5 -193.5t39.5 -193.5t106.5 -159.5t159.5 -106.5t193.5 -39.5t193.5 39.5t159.5 106.5t106.5 159.5t39.5 193.5t-39.5 193.5t-106.5 159.5t-159.5 106.5t-193.5 39.5zM512 -71q-92 0 -176 36t-145.5 97.5
t-97.5 145.5t-36 176t36 176t97.5 145.5t145.5 97.5t176 36t176 -36t145.5 -97.5t97.5 -145.5t36 -176t-36 -176t-97.5 -145.5t-145.5 -97.5t-176 -36zM325 571h125v-374h-125v374zM574 571h125v-374h-125v374z" />
    <glyph glyph-name="xiangzi1" unicode="&#xe716;" 
d="M996 675l-400 213q-11 5 -26 5t-25 -5l-517 -213q-10 -5 -17.5 -16t-7.5 -21v-508q0 -10 7.5 -21t17.5 -16l400 -213q6 -3 13 -4v-1h25v1q8 1 13 4l517 213q10 5 17.5 16t7.5 21v508q0 10 -7.5 21t-17.5 16zM984 652h1q3 -1 6 -5l-536 -223l-165 90l535 223l159 -85v0z
M556 865q5 3 14 3t14 -3l154 -82l-533 -221v-1l-165 91zM440 -97l-400 213v0h-1q-4 2 -7.5 7t-3.5 7v499l177 -97v-116l77 -36v110l159 -87v-501l-0.5 0.5zM986 117l-518 -214l-0.5 -0.5t-1.5 -0.5v500l530 220v-492q0 -2 -3.5 -7t-6.5 -6zM627 295l25 11v-217l51 24v217
l25 12l-51 64zM754 354l25 12v-218l51 24v217l25 12l-50 65zM843 127l-204 -95v26l204 94v-25z" />
    <glyph glyph-name="tingzhiluyin" unicode="&#xe6fc;" 
d="M624 538h-224q-17 0 -29.5 -12.5t-12.5 -29.5v-224q0 -17 12.5 -29.5t29.5 -12.5h224q17 0 29.5 12.5t12.5 29.5v224q0 17 -12.5 29.5t-29.5 12.5zM512 832q-122 0 -225 -60t-163 -163t-60 -225t60 -225t163 -163t225 -60t225 60t163 163t60 225t-60 225t-163 163
t-225 60zM512 8q-156 0 -266 110t-110 266t110 266t266 110q102 0 188.5 -50.5t137 -137t50.5 -188.5t-50.5 -188.5t-137 -137t-188.5 -50.5z" />
    <glyph glyph-name="iconset0199" unicode="&#xe70a;" 
d="M888 760h-376q-23 0 -41.5 8.5t-31 21t-24.5 25t-29.5 21.5t-40.5 9h-209q-35 0 -60 -25t-25 -60v-167v-418q0 -35 25 -60t60 -25h197q-32 29 -39 43h-158q-17 0 -30 12.5t-13 30.5v417h239q16 16 59 43h-297v124q0 17 12.5 30t30.5 13h209q18 0 32 -9t25.5 -21.5
t24.5 -25t35 -21t50 -8.5h376q17 0 30 -12.5t13 -30.5v-43h-215q45 -28 59 -43h154v-418q0 -17 -12.5 -30t-30.5 -13h-38l43 -43q33 3 57 26.5t24 54.5v508q-3 36 -27 61t-58 25zM772 154q73 86 73 191q0 121 -85.5 205.5t-204.5 84.5q-121 0 -205.5 -85.5t-84.5 -204.5
q0 -121 85.5 -205.5t204.5 -84.5q114 0 191 73l30 -30v0v0l162 -161q4 -5 12 -5q22 0 22 22l-4 12zM555 94q-103 0 -177.5 73.5t-74.5 178.5q0 103 73.5 177.5t178.5 74.5q103 0 177.5 -73.5t74.5 -178.5q-4 -106 -77 -179t-175 -73z" />
    </font>
</defs>
</svg>
